<svg width="98" height="100" viewBox="0 0 98 100" fill="none" xmlns="http://www.w3.org/2000/svg">
<g filter="url(#filter0_d_64_15967)">
<rect x="4" width="90" height="92" rx="45" fill="white"/>
</g>
<g clip-path="url(#clip0_64_15967)">
<path d="M41.1052 25.5554C39.6395 25.5554 38.2339 26.1837 37.1975 27.3019C36.1611 28.4202 35.5789 29.9369 35.5789 31.5184V60.4813C35.5789 62.0628 36.1611 63.5795 37.1975 64.6978C38.2339 65.8161 39.6395 66.4443 41.1052 66.4443C42.5708 66.4443 43.9765 65.8161 45.0129 64.6978C46.0493 63.5795 46.6315 62.0628 46.6315 60.4813V31.5184C46.6315 29.9369 46.0493 28.4202 45.0129 27.3019C43.9765 26.1837 42.5708 25.5554 41.1052 25.5554Z" fill="#32E22F"/>
<path d="M58.4736 25.5554C57.0079 25.5554 55.6023 26.1837 54.5659 27.3019C53.5295 28.4202 52.9473 29.9369 52.9473 31.5184V60.4813C52.9473 62.0628 53.5295 63.5795 54.5659 64.6978C55.6023 65.8161 57.0079 66.4443 58.4736 66.4443C59.9393 66.4443 61.3449 65.8161 62.3813 64.6978C63.4177 63.5795 63.9999 62.0628 63.9999 60.4813V31.5184C63.9999 29.9369 63.4177 28.4202 62.3813 27.3019C61.3449 26.1837 59.9393 25.5554 58.4736 25.5554Z" fill="#32E22F"/>
</g>
<defs>
<filter id="filter0_d_64_15967" x="0" y="0" width="98" height="100" filterUnits="userSpaceOnUse" color-interpolation-filters="sRGB">
<feFlood flood-opacity="0" result="BackgroundImageFix"/>
<feColorMatrix in="SourceAlpha" type="matrix" values="0 0 0 0 0 0 0 0 0 0 0 0 0 0 0 0 0 0 127 0" result="hardAlpha"/>
<feOffset dy="4"/>
<feGaussianBlur stdDeviation="2"/>
<feComposite in2="hardAlpha" operator="out"/>
<feColorMatrix type="matrix" values="0 0 0 0 0 0 0 0 0 0 0 0 0 0 0 0 0 0 0.15 0"/>
<feBlend mode="normal" in2="BackgroundImageFix" result="effect1_dropShadow_64_15967"/>
<feBlend mode="normal" in="SourceGraphic" in2="effect1_dropShadow_64_15967" result="shape"/>
</filter>
<clipPath id="clip0_64_15967">
<rect x="30.842" y="25.5554" width="37.8947" height="40.8889" fill="white"/>
</clipPath>
</defs>
</svg>
