<svg width="157" height="21" viewBox="0 0 157 21" fill="none" xmlns="http://www.w3.org/2000/svg">
<g filter="url(#filter0_i_40_909)">
<path d="M76.9601 20.3628V3.83843H71.5882V0.422612H86.1858V3.83843H80.989V20.3628H76.9601Z" fill="#32E32F"/>
<path d="M84.4599 20.3628V0.422612H92.255C93.851 0.422612 95.1842 0.626977 96.2547 1.03571C97.3446 1.44444 98.1524 2.12566 98.6779 3.07936C99.2229 4.03306 99.4953 5.32738 99.4953 6.9623C99.4953 8.40259 99.2326 9.61905 98.7071 10.6117C98.201 11.5848 97.4225 12.305 96.3715 12.7721L99.4953 20.3628H95.2621L92.6345 13.6772H88.4888V20.3628H84.4599ZM88.4888 10.3781H92.3426C93.0822 10.3781 93.6758 10.2419 94.1235 9.96939C94.5711 9.67744 94.8923 9.27844 95.0869 8.77239C95.2815 8.24688 95.3788 7.65325 95.3788 6.9915C95.3788 5.90155 95.1258 5.08409 94.6198 4.53911C94.1137 3.99414 93.3255 3.72165 92.255 3.72165H88.4888V10.3781ZM102.45 20.3628V0.422612H106.479V20.3628H102.45ZM110.177 20.3628V0.422612H117.68C119.334 0.422612 120.706 0.656172 121.796 1.12329C122.886 1.57095 123.704 2.30083 124.249 3.31292C124.813 4.32502 125.095 5.67772 125.095 7.37103C125.095 9.06434 124.813 10.4462 124.249 11.5167C123.704 12.5677 122.886 13.3463 121.796 13.8523C120.706 14.3389 119.334 14.5822 117.68 14.5822H114.206V20.3628H110.177ZM114.206 11.2832H117.563C118.789 11.2832 119.665 10.962 120.191 10.3197C120.716 9.65798 120.979 8.68481 120.979 7.40023C120.979 6.07672 120.716 5.13274 120.191 4.56831C119.665 4.00387 118.789 3.72165 117.563 3.72165H114.206V11.2832ZM127.682 20.3628V0.422612H131.711V16.947H139.594V20.3628H127.682ZM141.767 20.3628V0.422612H155.021V3.78004H145.795V8.62642H153.269V11.9255H145.795V17.0054H155.021V20.3628H141.767Z" fill="#32E32F"/>
<path d="M51.2099 20.3628V0.422612H57.6912L61.7201 13.7355L65.6614 0.422612H72.2303V20.3628H68.2014V5.59013H67.7927L63.6178 19.8373H59.8224L55.6475 5.59013H55.2388V20.3628H51.2099Z" fill="#E2FFE1"/>
<path d="M9.34653 1.91245C8.72779 0.672747 7.37 0.362823 6.76845 0.362823H0.581055V0.879367C2.74664 0.569441 3.71772 2.29986 3.93256 3.20381L10.8934 18.9584C11.8215 20.508 12.698 20.6372 14.2449 20.6372H16.5651H19.0143V19.8623C17.7768 20.4822 16.6941 19.0014 16.3073 18.1836L9.34653 1.91245Z" fill="#32E32F" stroke="#32E32F" stroke-width="0.298152"/>
<path d="M19.6588 1.91245C19.04 0.672747 17.6823 0.362823 17.0807 0.362823H10.8933V0.879367C13.0589 0.569441 14.03 2.29986 14.2448 3.20381L21.2056 18.9584C22.1337 20.508 23.0103 20.6372 24.5571 20.6372H26.8774H29.3266V19.8623C28.0891 20.4822 27.0063 19.0014 26.6196 18.1836L19.6588 1.91245Z" fill="#E2FFE1" stroke="#E2FFE1" stroke-width="0.298152"/>
<path d="M29.971 1.91245C29.3523 0.672747 27.9945 0.362823 27.393 0.362823H21.2056V0.879367C23.3712 0.569441 24.3422 2.29986 24.5571 3.20381L31.5179 18.9584C32.446 20.508 33.3225 20.6372 34.8694 20.6372H37.1897H39.6388V19.8623C38.4014 20.4822 37.3186 19.0014 36.9319 18.1836L29.971 1.91245Z" fill="#32E32F" stroke="#32E32F" stroke-width="0.298152"/>
</g>
<defs>
<filter id="filter0_i_40_909" x="-1.56812" y="-1.78625" width="157.987" height="22.5725" filterUnits="userSpaceOnUse" color-interpolation-filters="sRGB">
<feFlood flood-opacity="0" result="BackgroundImageFix"/>
<feBlend mode="normal" in="SourceGraphic" in2="BackgroundImageFix" result="shape"/>
<feColorMatrix in="SourceAlpha" type="matrix" values="0 0 0 0 0 0 0 0 0 0 0 0 0 0 0 0 0 0 127 0" result="hardAlpha"/>
<feOffset dx="-2" dy="-2"/>
<feGaussianBlur stdDeviation="2"/>
<feComposite in2="hardAlpha" operator="arithmetic" k2="-1" k3="1"/>
<feColorMatrix type="matrix" values="0 0 0 0 0 0 0 0 0 0 0 0 0 0 0 0 0 0 0.25 0"/>
<feBlend mode="normal" in2="shape" result="effect1_innerShadow_40_909"/>
</filter>
</defs>
</svg>
