<svg width="276" height="320" viewBox="0 0 276 320" fill="none" xmlns="http://www.w3.org/2000/svg">
    <g filter="url(#cxm99jjdta)">
        <path d="M203.476 78c13.271 0 24.029-10.757 24.029-24.029 0-13.27-10.758-24.03-24.029-24.03s-24.03 10.76-24.03 24.03c0 13.272 10.759 24.03 24.03 24.03z" fill="#fff"/>
        <path d="M206.285 64.058c-1.558-.043-3.496-.097-4.99-1.188a3.833 3.833 0 0 1-1.507-2.861 2.579 2.579 0 0 1 .876-2.117 3.326 3.326 0 0 1 3.147-.453l-1.272-9.294.934-.128 1.495 10.926-.78-.357c-.904-.415-2.145-.626-2.916.026a1.665 1.665 0 0 0-.543 1.364 2.893 2.893 0 0 0 1.122 2.133c1.163.85 2.708.959 4.46 1.008l-.026.941zM197.922 48.946h-5.075v.943h5.075v-.943zM213.942 48.946h-5.076v.943h5.076v-.943z" fill="#2F2E41"/>
        <path d="M203.476 91.943a37.972 37.972 0 1 1 37.971-37.972 38.01 38.01 0 0 1-37.971 37.972zm0-74.903a36.932 36.932 0 1 0 36.931 36.931 36.975 36.975 0 0 0-36.931-36.93z" fill="#3F3D56"/>
        <path d="M170.194 166.092c10.577 0 19.151-8.575 19.151-19.151 0-10.577-8.574-19.152-19.151-19.152s-19.152 8.575-19.152 19.152c0 10.576 8.575 19.151 19.152 19.151zM235.922 166.092c10.577 0 19.152-8.575 19.152-19.151 0-10.577-8.575-19.152-19.152-19.152-10.576 0-19.151 8.575-19.151 19.152 0 10.576 8.575 19.151 19.151 19.151z" fill="#32E22F"/>
        <path d="M179.497 150.765a2.43 2.43 0 0 1-2.525-2.302l-.01-.145h-13.537l-.01.145a2.416 2.416 0 0 1-.83 1.709 2.421 2.421 0 0 1-1.807.591 2.57 2.57 0 0 1-2.548-2.605v-.1a4.95 4.95 0 0 1 4.942-4.942h14.044a4.95 4.95 0 0 1 4.941 4.942v.1a2.562 2.562 0 0 1-1.563 2.4 2.562 2.562 0 0 1-.985.205 4.184 4.184 0 0 1-.112.002zM240.324 157.548c-.321 0-.641-.031-.956-.093a4.91 4.91 0 0 1-3.152-2.089l-7.847-11.648a4.949 4.949 0 0 1 1.337-6.859l.084-.056a2.58 2.58 0 0 1 1.929-.416 2.56 2.56 0 0 1 1.654 1.074 2.449 2.449 0 0 1 .517 1.828 2.424 2.424 0 0 1-.951 1.644c-.037.031-.076.06-.114.089l7.563 11.228.126-.073a2.44 2.44 0 0 1 3.381.902 2.563 2.563 0 0 1 .374 1.937 2.571 2.571 0 0 1-1.111 1.631l-.084.057a4.9 4.9 0 0 1-2.75.844z" fill="#fff"/>
        <path d="M61.63 295.267h-7.244a3.478 3.478 0 0 1-3.474-3.473v-60.383a3.48 3.48 0 0 1 3.474-3.473h7.244a3.478 3.478 0 0 1 3.474 3.473v60.383a3.478 3.478 0 0 1-3.474 3.473zM43.865 295.267H36.62a3.477 3.477 0 0 1-3.473-3.473v-60.383a3.479 3.479 0 0 1 3.473-3.473h7.245a3.477 3.477 0 0 1 3.474 3.473v60.383a3.477 3.477 0 0 1-3.474 3.473zM51.2 151.973c15.93 0 28.845-12.914 28.845-28.845 0-15.93-12.915-28.845-28.845-28.845s-28.845 12.915-28.845 28.845c0 15.931 12.914 28.845 28.845 28.845z" fill="#32E22F"/>
        <path d="M67.5 132.702c1.825-.413 4.095-.928 5.6-2.56a4.606 4.606 0 0 0 1.11-3.72 3.092 3.092 0 0 0-1.525-2.29c-1.072-.594-2.449-.511-3.81.199l-.665-11.241-1.13.067.782 13.215.835-.603c.968-.698 2.38-1.236 3.44-.648a1.993 1.993 0 0 1 .956 1.481 3.473 3.473 0 0 1-.825 2.773c-1.171 1.27-2.965 1.758-5.018 2.224l.25 1.103zM79.81 111.779l-5.976 1.181.22 1.11 5.976-1.181-.22-1.11zM60.946 115.507l-5.976 1.18.219 1.11 5.977-1.181-.22-1.109zM58.294 242.504h-33.63a3.945 3.945 0 0 1-3.936-3.937v-50.466a29.294 29.294 0 0 1 29.259-29.259 30.115 30.115 0 0 1 30.082 30.083v31.804a21.8 21.8 0 0 1-21.775 21.775zM45.792 110.429c.931-2.791 4.166-3.868 6.856-3.952 3.782-.117 7.475 1.226 11.27.626 6.882-1.089 11.178-7.722 12.517-14.072.894-4.236.814-8.577.714-12.881a.861.861 0 0 0-1.409-.699 13.778 13.778 0 0 0-5.568 7.912l1.648.341.866-7.517a.86.86 0 0 0-.568-.864c-2.581-.9-4.734 1.13-6.138 3.05-.728.994-1.426 2.077-2.507 2.724a6.2 6.2 0 0 1-3.688.715c-2.63-.19-5.124-1.184-7.7-1.676a28.053 28.053 0 0 0-7.18-.4 30.185 30.185 0 0 0-13.435 4.24c-4.076 2.456-7.809 5.967-9.973 10.253-1.235 2.447-1.906 5.264-1.227 7.977a8.075 8.075 0 0 0 4.589 5.633c1.01.423 1.56-1.183.556-1.603-1.91-.8-3.123-2.676-3.548-4.651-.485-2.257.11-4.593 1.143-6.615 2.014-3.937 5.462-7.21 9.22-9.477a28.997 28.997 0 0 1 12.582-4.06 26.604 26.604 0 0 1 6.522.284c2.416.402 4.728 1.267 7.15 1.649 2.657.419 5.415.05 7.317-2.018 1.4-1.52 3.128-5.339 5.76-4.422l-.567-.864-.867 7.517c-.108.94 1.405 1.28 1.648.34a12.378 12.378 0 0 1 5.09-7.196l-1.409-.699c.167 7.136.317 15.023-4.44 20.871-2.04 2.508-4.912 4.344-8.175 4.636-3.676.329-7.285-1.001-10.967-.694-3.183.266-6.607 1.805-7.685 5.036-.346 1.037 1.257 1.593 1.603.556zM60.29 135.789a5.243 5.243 0 0 1-1.928 3.808l-5.985 4.901a5.286 5.286 0 0 1-7.432-.74l-15.027-18.349a5.288 5.288 0 0 1 .74-7.432l5.985-4.901a5.278 5.278 0 0 1 7.431.74l15.027 18.349a5.243 5.243 0 0 1 1.19 3.624z" fill="#2F2E41"/>
        <path d="M41.218 126.573a1.875 1.875 0 1 0 0-3.751 1.875 1.875 0 0 0 0 3.751z" fill="#fff"/>
        <path d="m54.17 126.988-.002.012a3.255 3.255 0 0 1 2.557 3.579l-6.407 52.494a6.631 6.631 0 0 1-13.163-1.607l6.407-52.494a3.255 3.255 0 0 1 3.626-2.837l6.981.853z" fill="#32E22F"/>
    </g>
    <defs>
        <filter id="cxm99jjdta" x="0" y="0" width="275.074" height="319.267" filterUnits="userSpaceOnUse" color-interpolation-filters="sRGB">
            <feFlood flood-opacity="0" result="BackgroundImageFix"/>
            <feColorMatrix in="SourceAlpha" values="0 0 0 0 0 0 0 0 0 0 0 0 0 0 0 0 0 0 127 0" result="hardAlpha"/>
            <feOffset dy="4"/>
            <feGaussianBlur stdDeviation="10"/>
            <feComposite in2="hardAlpha" operator="out"/>
            <feColorMatrix values="0 0 0 0 1 0 0 0 0 1 0 0 0 0 1 0 0 0 0.25 0"/>
            <feBlend in2="BackgroundImageFix" result="effect1_dropShadow_25_1287"/>
            <feBlend in="SourceGraphic" in2="effect1_dropShadow_25_1287" result="shape"/>
        </filter>
    </defs>
</svg>
