<svg width="375" height="306" viewBox="0 0 375 306" fill="none" xmlns="http://www.w3.org/2000/svg">
    <g filter="url(#wfimo75p1a)">
        <path d="M177.327 232.227s4.261-7.018 9.731-2.868c5.471 4.149 15.602 11.151 15.602 11.151s2.075 4.478-3.296 2.796c-5.37-1.682-22.903-4.389-22.903-4.389l.866-6.69z" fill="#FEB8B8"/>
        <path d="M58.248 187.656c1.358-10.962 8.125-21.763 18.538-25.33a51.082 51.082 0 0 0 .002 34.942c1.6 4.346 3.83 9.011 2.326 13.391-.937 2.725-3.228 4.81-5.788 6.113-2.561 1.304-5.403 1.925-8.21 2.534l-.552.459c-4.456-10.1-7.674-21.148-6.316-32.109z" fill="#32E22F"/>
        <path d="M76.89 162.533a43.585 43.585 0 0 0-10.772 24.482 18.807 18.807 0 0 0 .212 5.866 10.752 10.752 0 0 0 2.662 4.983c1.2 1.324 2.579 2.538 3.437 4.131a6.596 6.596 0 0 1 .32 5.371c-.757 2.182-2.251 3.961-3.772 5.649-1.689 1.875-3.472 3.795-4.19 6.281-.087.301-.548.148-.46-.153 1.248-4.324 5.43-6.78 7.423-10.675.93-1.818 1.321-3.927.45-5.846-.764-1.678-2.186-2.931-3.412-4.26a11.476 11.476 0 0 1-2.783-4.775 17.387 17.387 0 0 1-.436-5.836 42.354 42.354 0 0 1 3.07-12.826 44.295 44.295 0 0 1 7.93-12.757c.207-.233.526.133.32.365z" fill="#fff"/>
        <path d="M66.248 184.069a6.496 6.496 0 0 1-3.725-2.506 6.544 6.544 0 0 1-1.223-4.331c.024-.312.509-.288.484.025a6.06 6.06 0 0 0 1.139 4.031 6.018 6.018 0 0 0 3.477 2.319c.304.072.15.534-.152.462zM68.295 197.274a12.57 12.57 0 0 0 5.596-7.245c.087-.301.548-.148.46.153a13.077 13.077 0 0 1-5.838 7.527c-.269.16-.485-.276-.218-.435zM70.988 170.711a3.663 3.663 0 0 0 3.487-.177c.267-.164.483.272.218.434a4.113 4.113 0 0 1-3.857.206.251.251 0 0 1-.154-.308.242.242 0 0 1 .306-.155z" fill="#fff"/>
        <path d="M108.527 181.905c-.164.107-.328.214-.492.325a48.473 48.473 0 0 0-6.196 4.856c-.151.136-.303.276-.45.415a51.28 51.28 0 0 0-11.096 15.249 49.902 49.902 0 0 0-2.717 7.059c-1.003 3.34-1.826 7.042-3.81 9.775a8.602 8.602 0 0 1-.664.822H65.164c-.041-.021-.082-.037-.123-.058l-.716.033.09-.386c.016-.074.037-.148.053-.222.012-.049.025-.099.033-.144l.012-.045c.008-.045.02-.086.029-.128.18-.735.365-1.471.556-2.206 0-.004 0-.004.004-.008 1.47-5.601 3.418-11.127 6.14-16.181.081-.152.163-.308.253-.46a47.523 47.523 0 0 1 4.253-6.476 41.842 41.842 0 0 1 2.787-3.201 34.835 34.835 0 0 1 8.71-6.55c6.433-3.41 13.882-4.717 20.758-2.633.176.053.348.106.524.164z" fill="#32E22F"/>
        <path d="M108.486 182.134a43.284 43.284 0 0 0-23.282 13.036 18.754 18.754 0 0 0-3.348 4.812 10.783 10.783 0 0 0-.864 5.588c.164 1.782.538 3.585.268 5.376a6.594 6.594 0 0 1-2.965 4.482c-1.914 1.284-4.173 1.801-6.4 2.23-2.473.476-5.049.931-7.112 2.482-.25.188-.526-.213-.277-.4 3.59-2.698 8.402-2.132 12.33-4.036 1.833-.889 3.41-2.338 3.864-4.397.397-1.8.013-3.66-.168-5.463a11.506 11.506 0 0 1 .64-5.495 17.324 17.324 0 0 1 3.152-4.923 42.085 42.085 0 0 1 10.143-8.385 43.99 43.99 0 0 1 13.982-5.393c.305-.061.341.425.037.486z" fill="#fff"/>
        <path d="M87.075 192.897a6.545 6.545 0 0 1 .149-8.45c.207-.234.58.078.372.312a6.06 6.06 0 0 0-.123 7.861c.2.241-.2.517-.398.277zM80.79 204.677c3.134.341 6.28-.517 8.813-2.402.25-.187.526.213.276.4a12.992 12.992 0 0 1-9.175 2.481c-.311-.034-.223-.513.086-.479zM98.87 185.096a3.668 3.668 0 0 0 2.891 1.966c.311.031.222.51-.087.479a4.111 4.111 0 0 1-1.87-.684 4.137 4.137 0 0 1-1.333-1.483.254.254 0 0 1 .061-.339.247.247 0 0 1 .182-.039c.063.012.12.048.156.1z" fill="#fff"/>
        <path d="M202.924 260.308c.526-4.249 3.149-8.435 7.184-9.817a19.802 19.802 0 0 0 .001 13.542c.62 1.684 1.485 3.492.901 5.19a4.397 4.397 0 0 1-2.243 2.369 13.044 13.044 0 0 1-3.181.982l-.215.178c-1.726-3.915-2.973-8.196-2.447-12.444z" fill="#F0F0F0"/>
        <path d="M210.148 250.571a16.888 16.888 0 0 0-4.174 9.489 7.286 7.286 0 0 0 .082 2.273 4.177 4.177 0 0 0 1.031 1.931 8.63 8.63 0 0 1 1.333 1.601 2.56 2.56 0 0 1 .124 2.081 6.628 6.628 0 0 1-1.462 2.19c-.655.726-1.346 1.471-1.624 2.434-.034.117-.212.057-.179-.059.484-1.676 2.105-2.628 2.878-4.138a2.584 2.584 0 0 0 .174-2.265 6.7 6.7 0 0 0-1.322-1.651 4.448 4.448 0 0 1-1.079-1.851 6.723 6.723 0 0 1-.169-2.261c.135-1.71.536-3.387 1.19-4.971a17.158 17.158 0 0 1 3.073-4.944c.08-.091.204.052.124.141z" fill="#fff"/>
        <path d="M206.024 258.918a2.525 2.525 0 0 1-1.918-2.65c.01-.121.198-.112.188.009a2.346 2.346 0 0 0 1.789 2.462c.118.028.058.207-.059.179zM206.818 264.035a4.87 4.87 0 0 0 2.168-2.808c.034-.116.213-.057.179.06a5.072 5.072 0 0 1-2.263 2.917c-.104.062-.188-.107-.084-.169zM207.861 253.741a1.423 1.423 0 0 0 1.352-.069c.103-.063.187.106.084.168a1.594 1.594 0 0 1-1.495.08.1.1 0 0 1-.06-.119.096.096 0 0 1 .048-.055.092.092 0 0 1 .071-.005z" fill="#fff"/>
        <path d="M222.409 258.079a18.716 18.716 0 0 0-2.766 2.169 19.874 19.874 0 0 0-4.3 5.909c-.42.884-.772 1.799-1.053 2.736-.389 1.295-.708 2.729-1.477 3.788a3.289 3.289 0 0 1-.257.319h-6.952l-.048-.022-.277.012.035-.149.02-.086c.005-.019.01-.038.013-.056l.005-.018.011-.049c.07-.285.142-.57.216-.855l.001-.003a28.43 28.43 0 0 1 2.379-6.271c.032-.059.064-.12.099-.179.48-.88 1.031-1.719 1.648-2.509.339-.432.699-.846 1.08-1.241a13.519 13.519 0 0 1 3.375-2.538c2.494-1.322 5.38-1.828 8.045-1.021l.203.064z" fill="#F0F0F0"/>
        <path d="M222.394 258.168a16.78 16.78 0 0 0-9.024 5.052 7.263 7.263 0 0 0-1.297 1.865 4.179 4.179 0 0 0-.335 2.165 8.61 8.61 0 0 1 .104 2.084 2.558 2.558 0 0 1-1.149 1.737 6.574 6.574 0 0 1-2.48.864c-.959.185-1.957.361-2.757.962-.097.073-.204-.082-.107-.155 1.392-1.046 3.256-.826 4.779-1.564a2.58 2.58 0 0 0 1.497-1.704 6.713 6.713 0 0 0-.065-2.117 4.465 4.465 0 0 1 .248-2.13 6.732 6.732 0 0 1 1.222-1.908 16.284 16.284 0 0 1 3.931-3.249 17.062 17.062 0 0 1 5.418-2.091c.119-.023.132.165.015.189z" fill="#fff"/>
        <path d="M214.096 262.339a2.538 2.538 0 0 1 .057-3.275c.081-.091.225.03.145.121a2.348 2.348 0 0 0-.048 3.046c.077.094-.078.201-.154.108zM211.66 266.904a4.838 4.838 0 0 0 3.415-.931c.098-.072.204.083.107.156a5.036 5.036 0 0 1-3.555.961c-.121-.013-.087-.199.033-.186zM218.667 259.316a1.433 1.433 0 0 0 1.12.762c.121.012.086.197-.033.185a1.606 1.606 0 0 1-1.242-.84.102.102 0 0 1-.014-.07.099.099 0 0 1 .038-.061.093.093 0 0 1 .07-.015.09.09 0 0 1 .061.039z" fill="#fff"/>
        <path d="M322.368 170.067c-2.087-16.849-12.488-33.45-28.494-38.933a78.515 78.515 0 0 1-.003 53.708c-2.46 6.679-5.888 13.851-3.575 20.582 1.44 4.189 4.961 7.393 8.897 9.397 3.936 2.004 8.305 2.959 12.619 3.895l.849.705c6.848-15.525 11.794-32.505 9.707-49.354z" fill="#32E22F"/>
        <path d="M293.716 131.453a66.984 66.984 0 0 1 16.556 37.63c.291 2.997.327 6.062-.326 9.016a16.542 16.542 0 0 1-4.091 7.66c-1.844 2.034-3.965 3.9-5.284 6.348-1.391 2.581-1.444 5.514-.492 8.255 1.165 3.355 3.461 6.089 5.798 8.684 2.596 2.882 5.337 5.833 6.441 9.654.133.463.841.227.708-.235-1.92-6.647-8.347-10.422-11.412-16.408-1.43-2.794-2.03-6.037-.689-8.986 1.172-2.578 3.358-4.504 5.242-6.548 1.979-2.145 3.497-4.499 4.279-7.34.799-2.905.883-5.978.67-8.969a65.1 65.1 0 0 0-4.719-19.714 68.088 68.088 0 0 0-12.188-19.609c-.319-.358-.81.206-.493.562z" fill="#fff"/>
        <path d="M310.072 164.555a9.997 9.997 0 0 0 5.726-3.852 10.064 10.064 0 0 0 1.88-6.657c-.038-.48-.783-.443-.745.038a9.315 9.315 0 0 1-1.751 6.196 9.249 9.249 0 0 1-5.344 3.564c-.467.112-.23.822.234.711zM306.925 184.851a19.323 19.323 0 0 1-8.6-11.136c-.135-.462-.843-.227-.708.235a20.095 20.095 0 0 0 8.973 11.569c.413.247.746-.423.335-.668zM302.786 144.023a5.638 5.638 0 0 1-5.36-.273c-.41-.251-.742.419-.335.668a6.314 6.314 0 0 0 5.929.316.386.386 0 0 0 .211-.19.386.386 0 0 0 .026-.283.377.377 0 0 0-.471-.238z" fill="#fff"/>
        <path d="M245.088 161.228c.251.164.503.329.755.499a74.725 74.725 0 0 1 9.524 7.465c.232.209.465.423.692.638a78.848 78.848 0 0 1 17.054 23.437 76.804 76.804 0 0 1 4.177 10.851c1.541 5.134 2.806 10.825 5.857 15.025.313.441.653.863 1.019 1.263h27.572c.063-.032.126-.057.189-.089l1.101.051c-.045-.196-.095-.398-.139-.594-.025-.114-.056-.227-.082-.341-.018-.076-.037-.152-.05-.221-.006-.025-.012-.051-.019-.069-.012-.07-.031-.133-.044-.196a262.908 262.908 0 0 0-.855-3.392c0-.006 0-.006-.006-.012-2.259-8.609-5.253-17.103-9.437-24.871-.126-.234-.251-.474-.39-.708a73.067 73.067 0 0 0-6.536-9.953 64.214 64.214 0 0 0-4.284-4.92 53.49 53.49 0 0 0-13.387-10.067c-9.889-5.242-21.338-7.25-31.906-4.048-.271.082-.535.164-.805.252z" fill="#32E22F"/>
        <path d="M245.15 161.58a66.526 66.526 0 0 1 35.786 20.038c2.03 2.217 3.896 4.643 5.146 7.396a16.557 16.557 0 0 1 1.327 8.588c-.252 2.739-.826 5.511-.411 8.263.437 2.902 2.153 5.276 4.557 6.889 2.942 1.974 6.414 2.769 9.837 3.428 3.801.732 7.76 1.432 10.932 3.815.384.289.808-.326.425-.615-5.519-4.146-12.915-3.276-18.952-6.204-2.817-1.365-5.241-3.592-5.939-6.757-.61-2.767-.02-5.626.259-8.397.294-2.909.094-5.706-.986-8.446-1.104-2.804-2.88-5.308-4.844-7.567a64.652 64.652 0 0 0-15.589-12.888 67.644 67.644 0 0 0-21.491-8.29c-.47-.093-.524.654-.057.747z" fill="#fff"/>
        <path d="M278.06 178.123a10.057 10.057 0 0 0-.229-12.987c-.318-.361-.891.119-.572.479a9.307 9.307 0 0 1 2.318 6.006 9.308 9.308 0 0 1-2.13 6.076c-.305.371.309.795.613.426zM287.719 196.231a19.202 19.202 0 0 1-13.544-3.693c-.386-.287-.81.328-.425.615a19.972 19.972 0 0 0 14.103 3.814c.477-.053.342-.789-.134-.736zM259.93 166.134a5.663 5.663 0 0 1-4.443 3.021c-.478.048-.342.784.133.737a6.352 6.352 0 0 0 4.923-3.332.388.388 0 0 0-.094-.521.378.378 0 0 0-.279-.06.379.379 0 0 0-.24.155z" fill="#fff"/>
        <path d="M354.512 220.817H20.409a.41.41 0 0 1-.409-.411.412.412 0 0 1 .41-.411h333.968a.41.41 0 0 1 .409.411c0 .227-.049.411-.275.411zM137.186 256.975H63.383a.408.408 0 0 1-.41-.411.41.41 0 0 1 .41-.411h73.67a.41.41 0 0 1 .409.411c0 .227-.05.411-.276.411zM253.012 273h-73.804a.409.409 0 0 1-.409-.411.41.41 0 0 1 .409-.411h73.67a.41.41 0 0 1 .409.411c0 .227-.049.411-.275.411zM322.588 256.564h-73.803a.412.412 0 0 1 0-.822h73.67a.41.41 0 0 1 .409.411c0 .227-.05.411-.276.411z" fill="#CACACA"/>
        <path d="M156.395 240.95c-4.585 0-8.782-.441-12.117-1.483-3.964-1.239-6.453-3.243-7.398-5.961a7.037 7.037 0 0 1 1.095-6.957c5.864-7.671 26.213-9.835 28.943-10.09l5.539-10.53c.355-2.513-1.322-4.415 1.575-4.462l34.271-.468c2.845-.06 2.037 1.709 2.524 4.159l5.222 9.358-22.472 9.521 3.398 8.312-.222.129c-6.577 3.83-25.491 8.472-40.358 8.472z" fill="#2F2E41"/>
        <path d="M212.938 214.915s31.383-3.606 29.336 10.817c-2.046 14.423-25.925 24.639-62.084 0l4.093-7.211s13.475-.673 21.662-4.279l6.993.673z" fill="#2F2E41"/>
        <path d="M168.507 149.575s-5.965-1.089-7.591 8.166c-1.627 9.255-4.233 31.177-4.233 31.177l-8.091 28.16a5.705 5.705 0 0 0-2.279 2.222 5.739 5.739 0 0 0 .294 6.119 5.697 5.697 0 0 0 2.481 1.991 5.67 5.67 0 0 0 6.01-1.059 5.725 5.725 0 0 0 1.604-5.91l10.826-29.888 2.064-25.733v-13.483a1.972 1.972 0 0 0-1.085-1.762zM210.492 149.575s5.965-1.089 7.592 8.166c1.627 9.255 4.233 31.177 4.233 31.177l8.09 28.16a5.707 5.707 0 0 1 2.28 2.222 5.738 5.738 0 0 1-.294 6.119 5.7 5.7 0 0 1-2.482 1.991 5.67 5.67 0 0 1-6.009-1.059 5.726 5.726 0 0 1-1.604-5.91l-10.827-29.888-2.063-25.733v-13.483a1.972 1.972 0 0 1 1.084-1.762z" fill="#FEB8B8"/>
        <path d="m210.038 141.925-11.283-4.236-21.869-.284-9.413 4.52 2.644 15.255s-5.338 9.074.539 18.15l1.319 32.338s21.084 12.275 38.881-2.465l-4.022-30.067s6.728-13.95 1.513-19.132l1.691-14.079z" fill="#32E22F"/>
        <path d="m205.442 146.666 4.596-4.741s10.029 5.296 9.822 23.01l-12.651-3.914-1.767-14.355zM172.578 146.666l-4.882-4.902s-8.615 6.69-8.409 24.404l11.524-5.147 1.767-14.355z" fill="#32E22F"/>
        <path d="M204.405 228.723s-3.514-7.424-9.384-3.865c-5.869 3.559-16.667 9.47-16.667 9.47s-2.526 4.238 2.989 3.124c5.515-1.115 23.233-1.985 23.233-1.985l-.171-6.744z" fill="#FEB8B8"/>
        <path d="M194.641 96.022c.05-.048.102-.091.151-.14 3.14-3.153 3.777-7.626 1.421-9.991-2.225-2.235-6.325-1.784-9.42.933-2.653-2.536-6.211-3.243-8.514-1.492-2.656 2.019-2.635 6.537.046 10.092.184.243.377.473.574.695a18.549 18.549 0 0 0-8.825 6.818 18.664 18.664 0 0 0-3.344 10.664v17.717a3.974 3.974 0 0 0 1.154 2.798 3.94 3.94 0 0 0 2.787 1.159h32.617a3.8 3.8 0 0 0 2.693-1.12 3.83 3.83 0 0 0 1.116-2.704v-17.85a18.666 18.666 0 0 0-3.432-10.786 18.544 18.544 0 0 0-9.024-6.793z" fill="#2F2E41"/>
        <path d="M198.373 128.956c6.045-6.069 6.045-15.907 0-21.976-6.044-6.068-15.844-6.068-21.889 0-6.044 6.069-6.044 15.907 0 21.976 6.045 6.068 15.845 6.068 21.889 0z" fill="#FFB6B6"/>
        <path d="M171.165 108.194a20.999 20.999 0 0 0 12.031 3.733 12.876 12.876 0 0 1-5.113 2.111 42.27 42.27 0 0 0 17.338.098 11.198 11.198 0 0 0 3.63-1.251 4.606 4.606 0 0 0 2.241-3.008c.38-2.182-1.313-4.164-3.073-5.5a22.631 22.631 0 0 0-9.095-4.063 22.572 22.572 0 0 0-9.952.242c-2.128.552-4.259 1.485-5.641 3.2-1.382 1.715-1.792 4.36-.475 6.126l-1.891-1.688z" fill="#2F2E41"/>
        <path d="m88.377 77.185.488-.66 12.994 9.676c-.706-2.16-3.205-9.01-7.303-11.743-4.895-3.265-8.339-2.25-10.215.586-1.876 2.835-1.474 6.416 3.42 9.681 4.15 2.768 11.542 2.383 13.698 2.202l-13.082-9.742z" fill="#32E22F"/>
        <path d="m284.011 30.207.604.556-10.938 11.968c2.214-.48 9.26-2.264 12.393-6.07 3.744-4.549 3.096-8.093.482-10.262-2.613-2.168-6.203-2.14-9.946 2.409-3.174 3.855-3.561 11.276-3.606 13.448l11.011-12.05z" fill="#6DF96B"/>
        <path d="m107.49 151.995.603.555-10.938 11.969c2.214-.481 9.26-2.264 12.394-6.071 3.743-4.548 3.095-8.093.482-10.261-2.614-2.168-6.203-2.14-9.947 2.408-3.174 3.856-3.561 11.276-3.606 13.449l11.012-12.049z" fill="#32E22F"/>
        <path d="m199.977 37.922.708.411-8.103 14.059c2.059-.95 8.554-4.22 10.794-8.616 2.676-5.253 1.28-8.573-1.738-10.123-3.019-1.55-6.517-.744-9.193 4.51-2.269 4.452-1.05 11.782-.626 13.912l8.158-14.153zM275.692 125.853l.709.411-8.103 14.059c2.059-.949 8.554-4.219 10.794-8.616 2.676-5.253 1.28-8.573-1.738-10.123-3.019-1.55-6.517-.743-9.193 4.51-2.269 4.452-1.05 11.782-.626 13.912l8.157-14.153z" fill="#6DF96B"/>
    </g>
    <defs>
        <filter id="wfimo75p1a" x="-9" y="0" width="392.787" height="306" filterUnits="userSpaceOnUse" color-interpolation-filters="sRGB">
            <feFlood flood-opacity="0" result="BackgroundImageFix"/>
            <feColorMatrix in="SourceAlpha" values="0 0 0 0 0 0 0 0 0 0 0 0 0 0 0 0 0 0 127 0" result="hardAlpha"/>
            <feOffset dy="4"/>
            <feGaussianBlur stdDeviation="14.5"/>
            <feComposite in2="hardAlpha" operator="out"/>
            <feColorMatrix values="0 0 0 0 1 0 0 0 0 1 0 0 0 0 1 0 0 0 0.25 0"/>
            <feBlend in2="BackgroundImageFix" result="effect1_dropShadow_37_750"/>
            <feBlend in="SourceGraphic" in2="effect1_dropShadow_37_750" result="shape"/>
        </filter>
    </defs>
</svg>
