<svg width="371" height="322" viewBox="0 0 371 322" fill="none" xmlns="http://www.w3.org/2000/svg">
    <g filter="url(#tj372v7b0a)">
        <g filter="url(#h0gkdco49b)">
            <path d="M320.657 151.618c-2.797-6.227-7.141-11.42-13.446-14.862-6.626-3.617-14.188-6.629-21.807-7.715a61.07 61.07 0 0 0-22.858 1.189c-3.593.866-7.554 1.871-10.584 3.943-2.897 1.98-4.882 5.239-6.497 8.166-1.548 2.804-2.513 5.892-1.675 9.032.772 2.895 2.931 5.305 5.4 7.119 2.205 1.62 5.29 3.765 8.24 2.761.167-.057.327-.133.476-.224 5.095 1.442 10.16-.655 15.39-2.296 3.179-.998 6.375-1.502 9.567-.257 3.145 1.227 5.705 3.637 7.581 6.234 1.785 2.472 2.96 5.277 4.918 7.646a11.47 11.47 0 0 0 3.634 2.982 12.327 12.327 0 0 0 4.624 1.354c6.319.657 14.707.052 18.347-5.512 3.879-5.929 1.341-13.659-1.31-19.56zm-64.506-9.106 2.812.297a10.755 10.755 0 0 0-4.846 2.113 11.97 11.97 0 0 0-1.465 1.361c.013-.04.021-.078.034-.118a5.99 5.99 0 0 1 1.322-2.163 6.528 6.528 0 0 1 2.143-1.49zm31.467 5.566c.208.145.45.241.707.28l.09.015c.174.093.349.185.524.276-.02.026-.035.054-.054.081-.428-.042-.857-.081-1.286-.121a1.93 1.93 0 0 0 .019-.531zm11.342 12.472a1.767 1.767 0 0 0-.248.306 18.736 18.736 0 0 1-.127-.17c.117-.064.243-.11.375-.136zm7.326 7.373 1.274.156a1.449 1.449 0 0 0-.173.41c-.3.009-.604.014-.908.015l-.193-.581zm6.152-3.362.513-.082c.269-.04.524-.135.75-.277l.004.084c.004.095.014.214.026.349a4.365 4.365 0 0 1-.129.204l-1.164-.278zm-21.847-21.01a2.502 2.502 0 0 0-.683-.373 31.154 31.154 0 0 0-3.688-1.073 14.617 14.617 0 0 1-.55-.505c1.058.194 2.104.442 3.134.742 1.32.393 2.615.856 3.878 1.386a57.034 57.034 0 0 0-2.091-.177zm11.769.733a99.25 99.25 0 0 0-1.854-1.051c.637.334 1.265.684 1.885 1.051h-.031zm12.689 5.386a42.692 42.692 0 0 0-5.443-5.184c.153-.326.229-.678.225-1.033a26.347 26.347 0 0 1 5.218 6.217zm-23.665-15.33c-.261-.055-.521-.112-.781-.166-2.474-.52-4.995-1.079-7.538-1.554.137.015.273.027.409.043 2.687.331 5.334.893 7.91 1.677z" fill="#32E22F"/>
            <path d="M293.534 200.077c-2.355-.061-5.285-.138-7.542-1.671a5.506 5.506 0 0 1-1.618-1.776 5.113 5.113 0 0 1-.661-2.245 3.402 3.402 0 0 1 .288-1.632c.23-.516.585-.976 1.037-1.343 1.179-.927 2.901-1.145 4.756-.637l-1.922-13.064 1.411-.179 2.26 15.357-1.178-.503c-1.366-.582-3.242-.878-4.407.037a2.343 2.343 0 0 0-.652.869c-.142.333-.2.691-.169 1.048.034.584.204 1.154.496 1.671.293.518.702.97 1.2 1.328 1.756 1.193 4.092 1.347 6.741 1.416l-.04 1.324zM280.893 178.836h-7.671v1.324h7.671v-1.324zM305.108 178.836h-7.672v1.324h7.672v-1.324zM259.894 160.546c-6.178-.655-10.962-6.159-11.488-11.743-.625-6.644 3.536-12.954 9.244-16.682 5.97-3.899 13.408-5.527 20.604-5.885 14.038-.65 27.834 3.579 38.706 11.863 5.392 4.164 10.428 9.469 12.337 15.877 1.657 5.564.309 11.869-4.505 15.766a11.656 11.656 0 0 1-4.084 2.101c-1.502.43-3.085.566-4.647.399-3.735-.361-7.18-2.187-10.163-4.203-5.802-3.923-10.565-9.388-17.634-11.438-5.183-1.503-11.909-.18-15.077 4.179a7.617 7.617 0 0 0-1.362 3.323.966.966 0 0 0 .114.748c.138.227.365.396.632.474.274.069.565.034.811-.096.246-.13.427-.345.503-.598.832-5.489 8.091-7.538 13.185-6.284 7.427 1.828 12.413 7.991 18.506 11.906 3.204 2.059 6.848 3.705 10.777 4 3.388.247 6.749-.713 9.403-2.686 5.206-3.822 7.197-10.397 6.046-16.316-1.333-6.855-6.295-12.729-11.738-17.277-11.036-9.124-25.364-14.045-40.128-13.785-7.53.161-15.387 1.607-21.875 5.308-6.292 3.59-11.156 9.596-11.792 16.577-.559 6.145 2.986 12.572 9.072 15.264a15.042 15.042 0 0 0 4.553 1.195c1.364.145 1.353-1.843 0-1.987z" fill="#fff"/>
        </g>
        <path d="M187.918 276.491c10.258 0 18.574-8.303 18.574-18.546 0-10.243-8.316-18.547-18.574-18.547-10.257 0-18.573 8.304-18.573 18.547s8.316 18.546 18.573 18.546z" fill="#32E22F"/>
        <path d="M298.876 275.449c10.391-3.116 21.438-6.365 29.678-13.773 7.364-6.619 12.336-16.728 9.285-26.655-3.045-9.907-12.163-16.513-21.578-19.798-5.34-1.864-10.926-2.898-16.511-3.71-6.07-.883-12.168-1.606-18.262-2.302a840.55 840.55 0 0 0-74.311-5.165c-12.269-.309-24.535-.301-36.805-.124-10.958.159-22.498.155-32.664-4.495-7.905-3.617-15.08-10.196-17.283-18.842-2.542-9.981 2.148-20.145 8.875-27.373 3.546-3.811 7.691-7.017 11.966-9.966 4.639-3.199 9.439-6.171 14.343-8.946a199.766 199.766 0 0 1 30.188-13.897c5.146-1.869 10.369-3.481 15.637-4.968 4.448-1.256 8.91-2.513 13.209-4.224 8.311-3.308 16.216-8.911 18.329-18.096 2.003-8.705-1.374-18.155-7.294-24.622-6.849-7.482-17.176-10.762-27.076-11.293-11.115-.596-21.974 2.182-32.422 5.708-11.142 3.76-22.045 8.083-33.423 11.129a225.177 225.177 0 0 1-34.4 6.385c-5.685.604-11.543 1.287-17.263.824-4.793-.388-9.563-1.795-13.095-5.193-3.03-2.913-4.834-6.916-4.214-11.14.113-.768 1.28-.442 1.168.321-.755 5.143 2.746 9.882 7.06 12.309 4.985 2.805 11.052 2.81 16.603 2.488a217.456 217.456 0 0 0 35.74-5.159c11.544-2.633 22.677-6.397 33.796-10.418 10.561-3.818 21.358-7.545 32.641-8.373 9.79-.717 20.088.707 28.617 5.816 7.495 4.49 13.007 11.977 14.763 20.57 1.717 8.395-.66 16.846-7.025 22.705-6.59 6.067-15.626 8.66-24.047 11.049-10.681 3.03-21.132 6.571-31.249 11.17a196.183 196.183 0 0 0-29.394 16.501c-8.982 6.129-17.847 13.842-20.688 24.776-1.323 5.094-1.079 10.496 1.135 15.307 1.969 4.278 5.212 7.876 8.989 10.652 9.012 6.622 20.371 7.981 31.257 8.117 12.227.151 24.454-.261 36.685-.06a841.117 841.117 0 0 1 93.26 6.725c5.581.716 11.181 1.427 16.667 2.699 9.756 2.261 19.25 6.609 25.313 14.869a24.701 24.701 0 0 1 4.824 12.275c.425 4.646-.715 9.301-2.818 13.434-4.657 9.149-13.379 14.968-22.641 18.791-4.961 2.047-10.107 3.599-15.243 5.139-.748.224-1.068-.943-.322-1.167z" fill="#F2F2F2"/>
        <path d="M64.567 74.698c5.352 0 9.69-4.332 9.69-9.677 0-5.344-4.338-9.676-9.69-9.676-5.352 0-9.69 4.332-9.69 9.676s4.338 9.677 9.69 9.677zM131.794 93.043c5.352 0 9.691-4.333 9.691-9.677 0-5.344-4.339-9.676-9.691-9.676s-9.69 4.332-9.69 9.676 4.338 9.677 9.69 9.677zM188.725 56.353c5.352 0 9.691-4.332 9.691-9.677 0-5.344-4.339-9.676-9.691-9.676s-9.69 4.332-9.69 9.676c0 5.345 4.338 9.677 9.69 9.677zM224.257 97.478c5.352 0 9.69-4.333 9.69-9.677 0-5.344-4.338-9.676-9.69-9.676-5.352 0-9.69 4.332-9.69 9.676s4.338 9.677 9.69 9.677zM176.208 145.053c5.352 0 9.691-4.332 9.691-9.676s-4.339-9.676-9.691-9.676c-5.351 0-9.69 4.332-9.69 9.676s4.339 9.676 9.69 9.676zM115.24 168.035c5.352 0 9.69-4.332 9.69-9.677 0-5.344-4.338-9.676-9.69-9.676-5.352 0-9.69 4.332-9.69 9.676 0 5.345 4.338 9.677 9.69 9.677zM179.843 203.918c5.352 0 9.69-4.332 9.69-9.676s-4.338-9.677-9.69-9.677c-5.352 0-9.691 4.333-9.691 9.677 0 5.344 4.339 9.676 9.691 9.676zM249.291 224.077c5.352 0 9.69-4.332 9.69-9.676s-4.338-9.676-9.69-9.676c-5.352 0-9.691 4.332-9.691 9.676s4.339 9.676 9.691 9.676zM330.448 219.642c5.352 0 9.69-4.332 9.69-9.676s-4.338-9.676-9.69-9.676c-5.352 0-9.69 4.332-9.69 9.676s4.338 9.676 9.69 9.676z" fill="#F2F2F2"/>
        <path d="M185.929 64.418c-29.028.205-52.795 23.76-53.208 52.743a969.24 969.24 0 0 0-.005 4.61c0 3.608 1.436 7.069 3.991 9.62a13.636 13.636 0 0 0 22.231-4.428 13.593 13.593 0 0 0 1.034-5.213l-.002-2.904a25.774 25.774 0 0 1 3.386-12.774 25.821 25.821 0 0 1 9.274-9.426 25.871 25.871 0 0 1 25.58-.445 25.823 25.823 0 0 1 9.598 9.098 25.776 25.776 0 0 1 .885 25.532 25.813 25.813 0 0 1-8.944 9.739l.005.005s-19.392 12.467-25.304 29.568l.005.001a37.821 37.821 0 0 0-1.564 10.793c0 1.502.088 14.644.259 25.311.06 3.68 1.566 7.19 4.194 9.771a14.062 14.062 0 0 0 22.857-4.694 14.019 14.019 0 0 0 1.045-5.395 6470.76 6470.76 0 0 1-.092-21.969c0-10.501 10.145-20.964 18.478-27.787 9.596-7.857 16.501-18.564 19.275-30.641a34.92 34.92 0 0 0 1.009-7.594 53.456 53.456 0 0 0-4.117-20.571 53.524 53.524 0 0 0-11.719-17.411 53.613 53.613 0 0 0-17.521-11.577 53.668 53.668 0 0 0-20.63-3.962z" fill="#32E22F"/>
        <path d="M236.613 270.293h9.547v6.002h-15.557a5.996 5.996 0 0 1 3.71-5.545 6.01 6.01 0 0 1 2.3-.457zM274.972 270.293h9.546v6.002h-15.557a5.996 5.996 0 0 1 3.71-5.545 6.016 6.016 0 0 1 2.301-.457z" fill="#2F2E41"/>
        <path d="M150.187 128.941a13.637 13.637 0 0 1-9.634-3.985 13.596 13.596 0 0 1-3.99-9.62c-.001-2.461.001-4.343.005-4.61a52.97 52.97 0 0 1 6.201-24.155 53.094 53.094 0 0 0-10.239 30.605 969.8 969.8 0 0 0-.005 4.611c0 3.608 1.436 7.068 3.991 9.62a13.635 13.635 0 0 0 22.751-5.929 13.582 13.582 0 0 1-9.08 3.463zM186.852 93.087a25.87 25.87 0 0 1 11.851 3.522 25.83 25.83 0 0 1 8.855 8.616 25.778 25.778 0 0 1 1.767 23.912 25.787 25.787 0 0 0 5.861-20.685 25.768 25.768 0 0 0-3.972-10.261 25.824 25.824 0 0 0-7.89-7.677 25.87 25.87 0 0 0-30.931 2.691 25.805 25.805 0 0 0-6.443 8.924 25.789 25.789 0 0 1 9.397-6.95 25.821 25.821 0 0 1 11.505-2.092zM191.044 213.61a14.053 14.053 0 0 1-9.853-4.027 14.014 14.014 0 0 1-4.194-9.771c-.171-10.667-.26-23.809-.26-25.311a37.88 37.88 0 0 1 1.564-10.792l-.005-.001a38.306 38.306 0 0 1 2.219-5.121 44.305 44.305 0 0 0-6.256 11.572l.005.001a37.81 37.81 0 0 0-1.564 10.792c0 1.502.088 14.644.259 25.311a14.014 14.014 0 0 0 4.194 9.771 14.063 14.063 0 0 0 18.282 1.221 14.037 14.037 0 0 0 5.058-7.293 14.005 14.005 0 0 1-9.449 3.648z" fill="#3F3D56"/>
        <path d="M64.829 271.889h4.95l2.355-19.066h-7.306v19.066z" fill="#FFB8B8"/>
        <path d="m79.326 276.478-15.558.001v-6.002l9.547-.001c1.594 0 3.123.633 4.25 1.758a5.998 5.998 0 0 1 1.76 4.244z" fill="#2F2E41"/>
        <path d="M47.063 271.889h4.95l2.355-19.066h-7.306l.001 19.066z" fill="#FFB8B8"/>
        <path d="m61.56 276.478-15.558.001v-6.002l9.547-.001c1.594 0 3.123.633 4.25 1.758a5.998 5.998 0 0 1 1.76 4.244zM51.389 266.025l-4.835-.254a1.887 1.887 0 0 1-1.785-2.002l5.78-63.891 26.612 7.171 2.564-.699-8.018 56.561a1.893 1.893 0 0 1-1.76 1.59l-5.212.243a1.904 1.904 0 0 1-1.42-.531 1.883 1.883 0 0 1-.57-1.403l.944-33.946a.629.629 0 0 0-1.245-.146l-9.108 35.808a1.873 1.873 0 0 1-1.947 1.499z" fill="#2F2E41"/>
        <path d="M65.718 147.601c5.477 0 9.916-4.433 9.916-9.902 0-5.469-4.44-9.903-9.916-9.903-5.478 0-9.918 4.434-9.918 9.903s4.44 9.902 9.918 9.902z" fill="#FFB8B8"/>
        <path d="m49.206 166.792 1.09 23.493.395 8.547a1.871 1.871 0 0 0 1.241 1.683l25.573 9.25c.207.077.426.115.646.113a1.867 1.867 0 0 0 1.352-.565 1.878 1.878 0 0 0 .531-1.365l-1.048-42.24a14.878 14.878 0 0 0-3.613-9.425 14.916 14.916 0 0 0-9.551-5.069 14.646 14.646 0 0 0-11.776 3.807 15.006 15.006 0 0 0-4.84 11.771z" fill="#CCC"/>
        <path d="M89.721 205.078a4.063 4.063 0 0 1-2.827-4.387c.08-.628.306-1.228.66-1.752l-8.673-11.515 7.484-.463 7.088 11.006a4.078 4.078 0 0 1 1.119 5.117 4.085 4.085 0 0 1-4.85 1.994z" fill="#FFB8B8"/>
        <path d="M83.624 196.855a1.878 1.878 0 0 1-1.026-1.016l-13.065-31.083a5.016 5.016 0 0 1 1.063-5.484 5.043 5.043 0 0 1 3.553-1.489 5.039 5.039 0 0 1 3.566 1.457c.47.465.843 1.018 1.098 1.627l13.065 31.083a1.884 1.884 0 0 1-1.01 2.467l-5.8 2.431a1.883 1.883 0 0 1-1.444.007z" fill="#CCC"/>
        <path d="m62.53 195.758 12.548-23.993a1.97 1.97 0 0 1 2.655-.831l18.214 9.499a1.965 1.965 0 0 1 .833 2.651l-12.548 23.992a1.968 1.968 0 0 1-2.655.832l-18.215-9.499a1.965 1.965 0 0 1-.833-2.651z" fill="#3F3D56"/>
        <path d="M70.945 184.797a4.06 4.06 0 0 0-4.553-2.559 4.073 4.073 0 0 0-1.712.76l-12.024-7.964-.02 7.487 11.42 6.415a4.085 4.085 0 0 0 6.938-1.353 4.07 4.07 0 0 0-.05-2.786z" fill="#FFB8B8"/>
        <path d="m55.743 186.48-9.827-7.772a6.934 6.934 0 0 1-4.452-4.643 6.911 6.911 0 0 1 1.294-6.298l8.922-11.676a4.078 4.078 0 0 1 5.253-.912 4.066 4.066 0 0 1 1.663 5.059l-7.06 11.531 10.375 4.913a1.9 1.9 0 0 1 1.004 1.178 1.883 1.883 0 0 1-.217 1.532l-4.188 6.618a1.896 1.896 0 0 1-1.279.851l-.03.005a1.883 1.883 0 0 1-1.457-.386z" fill="#CCC"/>
        <path d="M58.224 144.33a.86.86 0 0 1 .75-1.137 1.994 1.994 0 0 1 1.404.692c.358.413.776.771 1.24 1.063.479.241 1.13.207 1.403-.253.257-.433.08-1.012-.075-1.514a14.854 14.854 0 0 1-.658-3.939c-.045-1.492.166-3.049.993-4.212 1.068-1.502 2.977-2.072 4.783-2.031 1.807.041 3.584.598 5.373.95.618.122 1.344.184 1.757-.294.44-.509.278-1.331.091-2.018-.485-1.781-1-3.622-2.126-5.061a7.636 7.636 0 0 0-4.87-2.737 11.7 11.7 0 0 0-5.435.616 14.575 14.575 0 0 0-7.14 4.967 11.774 11.774 0 0 0-2.252 8.709 10.75 10.75 0 0 0 3.991 6.795l.771-.596z" fill="#2F2E41"/>
        <path d="M183.826 271.968a18.552 18.552 0 0 1-10.648-12.695 18.518 18.518 0 0 1 3.755-16.129 18.555 18.555 0 0 0-7.541 13.266 18.537 18.537 0 0 0 11.402 18.853 18.608 18.608 0 0 0 15.269-.49 18.586 18.586 0 0 0 6.134-4.831 18.58 18.58 0 0 1-18.371 2.026z" fill="#3F3D56"/>
    </g>
    <defs>
        <filter id="tj372v7b0a" x=".492" y=".3" width="380.346" height="321.068" filterUnits="userSpaceOnUse" color-interpolation-filters="sRGB">
            <feFlood flood-opacity="0" result="BackgroundImageFix"/>
            <feColorMatrix in="SourceAlpha" values="0 0 0 0 0 0 0 0 0 0 0 0 0 0 0 0 0 0 127 0" result="hardAlpha"/>
            <feOffset dy="4"/>
            <feGaussianBlur stdDeviation="20.35"/>
            <feComposite in2="hardAlpha" operator="out"/>
            <feColorMatrix values="0 0 0 0 1 0 0 0 0 1 0 0 0 0 1 0 0 0 0.25 0"/>
            <feBlend in2="BackgroundImageFix" result="effect1_dropShadow_25_1335"/>
            <feBlend in="SourceGraphic" in2="effect1_dropShadow_25_1335" result="shape"/>
            <feColorMatrix in="SourceAlpha" values="0 0 0 0 0 0 0 0 0 0 0 0 0 0 0 0 0 0 127 0" result="hardAlpha"/>
            <feOffset dx="-2" dy="-2"/>
            <feGaussianBlur stdDeviation="2"/>
            <feComposite in2="hardAlpha" operator="arithmetic" k2="-1" k3="1"/>
            <feColorMatrix values="0 0 0 0 0 0 0 0 0 0 0 0 0 0 0 0 0 0 0.25 0"/>
            <feBlend in2="shape" result="effect2_innerShadow_25_1335"/>
        </filter>
        <filter id="h0gkdco49b" x="227.622" y="111.493" width="120.354" height="107.614" filterUnits="userSpaceOnUse" color-interpolation-filters="sRGB">
            <feFlood flood-opacity="0" result="BackgroundImageFix"/>
            <feColorMatrix in="SourceAlpha" values="0 0 0 0 0 0 0 0 0 0 0 0 0 0 0 0 0 0 127 0" result="hardAlpha"/>
            <feOffset dy="3.172"/>
            <feGaussianBlur stdDeviation="7.929"/>
            <feComposite in2="hardAlpha" operator="out"/>
            <feColorMatrix values="0 0 0 0 1 0 0 0 0 1 0 0 0 0 1 0 0 0 0.25 0"/>
            <feBlend in2="BackgroundImageFix" result="effect1_dropShadow_25_1335"/>
            <feBlend in="SourceGraphic" in2="effect1_dropShadow_25_1335" result="shape"/>
            <feColorMatrix in="SourceAlpha" values="0 0 0 0 0 0 0 0 0 0 0 0 0 0 0 0 0 0 127 0" result="hardAlpha"/>
            <feOffset dx="-1.586" dy="-1.586"/>
            <feGaussianBlur stdDeviation="1.586"/>
            <feComposite in2="hardAlpha" operator="arithmetic" k2="-1" k3="1"/>
            <feColorMatrix values="0 0 0 0 0 0 0 0 0 0 0 0 0 0 0 0 0 0 0.25 0"/>
            <feBlend in2="shape" result="effect2_innerShadow_25_1335"/>
        </filter>
    </defs>
</svg>
