<svg width="351" height="266" viewBox="0 0 351 266" fill="none" xmlns="http://www.w3.org/2000/svg">
    <g filter="url(#o5geld6bsa)">
        <path d="M88.269 148.033C73.4 132.331 67.122 115.95 70.587 101.908c4.447-18.02 24.202-30.48 54.2-34.184l.111 1.033c-29.58 3.652-49.035 15.832-53.374 33.417-3.372 13.666 2.816 29.689 17.425 45.118l-.68.741z" fill="#505050"/>
        <path d="M231.718 203.771c-18.556 0-38.72-2.958-58.749-8.646-24.768-7.035-47.478-17.653-65.675-30.707l.539-.865c18.109 12.991 40.718 23.561 65.384 30.566 22.29 6.331 44.748 9.264 64.936 8.49l.035 1.04c-2.132.082-4.288.123-6.47.122z" fill="#F0F0F0"/>
        <path d="m274.288 197.229-.311-.985c16.596-6.02 26.976-15.717 30.018-28.044 3.867-15.671-4.534-33.855-23.655-51.205-19.219-17.437-46.933-31.906-78.038-40.74l.248-1.005c31.241 8.873 59.09 23.416 78.416 40.951 19.423 17.623 27.935 36.185 23.967 52.265-3.13 12.681-13.726 22.627-30.645 28.763zM121.9 204.206c-36.461-17.348-64.558-39.856-79.113-63.377l.808-.576c14.455 23.358 42.403 45.733 78.698 63.002l-.393.951z" fill="#505050"/>
        <path d="M250.095 234.261c-3.761 0-7.586-.09-11.475-.27l.042-1.039c29.024 1.348 54.633-2.378 74.063-10.778l.362.965c-16.949 7.327-38.551 11.122-62.992 11.122z" fill="#F0F0F0"/>
        <path d="M228.94 68.656a327.138 327.138 0 0 0-18.424-5.825C174.845 52.7 139.78 49.103 109.11 52.43l-.098-1.036c30.784-3.339 65.97.267 101.752 10.43a327.908 327.908 0 0 1 18.476 5.842l-.3.99zM65.482 149.594c-14.868-15.702-21.148-32.084-17.683-46.126 4.447-18.02 24.202-30.48 54.201-34.184l.111 1.034C72.53 73.97 53.076 86.15 48.737 103.734c-3.372 13.666 2.816 29.69 17.425 45.119l-.68.741z" fill="#505050"/>
        <path d="M208.931 205.332c-18.556 0-38.72-2.958-58.749-8.647-24.769-7.035-47.479-17.653-65.675-30.707l.539-.864c18.109 12.99 40.718 23.56 65.384 30.565 22.29 6.331 44.747 9.265 64.936 8.491l.035 1.039c-2.132.082-4.289.123-6.47.123z" fill="#F0F0F0"/>
        <path d="m251.501 198.79-.311-.986c16.596-6.019 26.976-15.716 30.018-28.043 3.867-15.671-4.534-33.856-23.655-51.205-19.219-17.437-46.933-31.906-78.038-40.74l.248-1.006c31.241 8.873 59.09 23.417 78.415 40.952 19.424 17.623 27.935 36.184 23.967 52.265-3.129 12.68-13.726 22.626-30.644 28.763zM99.113 205.767C62.65 188.418 34.555 165.91 20 142.389l.808-.575c14.454 23.358 42.403 45.732 78.698 63.002l-.393.951z" fill="#505050"/>
        <path d="M227.308 235.822c-3.761 0-7.586-.09-11.475-.27l.041-1.04c29.025 1.349 54.634-2.378 74.063-10.778l.363.965c-16.949 7.327-38.552 11.123-62.992 11.123z" fill="#F0F0F0"/>
        <path d="M206.153 70.217a327.657 327.657 0 0 0-18.424-5.826c-35.672-10.13-70.737-13.728-101.407-10.4l-.097-1.035c30.784-3.34 65.969.267 101.752 10.43a328.427 328.427 0 0 1 18.476 5.842l-.3.989z" fill="#505050"/>
        <path d="M36.528 121.73c6.968-8.381 18.083-13.49 28.157-10.432-9.293 7.056-15.96 17.41-18.823 29.231-1.088 4.563-1.855 9.76-5.393 12.551-2.2 1.736-5.117 2.15-7.824 1.755s-5.267-1.525-7.792-2.644l-.68.063c1.954-11.034 5.386-22.142 12.355-30.524z" fill="#F2F2F2"/>
        <path d="M64.654 111.532c-8.422 2.187-15.987 7.166-21.621 14.229a19.269 19.269 0 0 0-2.994 5.03 11.663 11.663 0 0 0-.601 5.713c.226 1.803.652 3.619.466 5.45a7.016 7.016 0 0 1-.855 2.642 6.524 6.524 0 0 1-1.788 2.036c-1.769 1.386-3.896 2.007-5.996 2.537-2.332.588-4.763 1.16-6.664 2.822-.23.202-.508-.193-.278-.394 3.307-2.893 7.903-2.522 11.562-4.623 1.708-.98 3.15-2.518 3.5-4.629.307-1.846-.13-3.719-.374-5.543a12.471 12.471 0 0 1 .393-5.61 17.938 17.938 0 0 1 2.803-5.134 41.088 41.088 0 0 1 9.313-8.947 40.55 40.55 0 0 1 13.08-6.071c.287-.075.34.417.054.492z" fill="#fff"/>
        <path d="M44.722 123.372c-.976-1.175-1.531-2.684-1.566-4.257a6.95 6.95 0 0 1 1.375-4.333c.188-.247.554.054.367.301a6.44 6.44 0 0 0-1.28 4.034 6.397 6.397 0 0 0 1.472 3.957c.199.236-.17.534-.368.298zM39.21 135.606c2.993.213 5.951-.792 8.284-2.814.23-.2.509.195.278.395-2.431 2.1-5.51 3.138-8.625 2.909-.296-.022-.231-.512.064-.49zM55.629 114.949c.289.539.699.992 1.192 1.319a3.329 3.329 0 0 0 1.633.555c.297.018.231.509-.063.491a3.742 3.742 0 0 1-1.805-.616 4.08 4.08 0 0 1-1.326-1.451.27.27 0 0 1 .045-.347.221.221 0 0 1 .324.049z" fill="#fff"/>
        <path d="M78.984 146.093c-.186-.005-.372-.011-.56-.013a43.009 43.009 0 0 0-7.467.467c-.191.026-.385.055-.576.086-5.949.965-11.68 3.108-16.9 6.317a47.263 47.263 0 0 0-5.93 4.328c-2.584 2.213-5.223 4.832-8.249 5.966a7.626 7.626 0 0 1-.961.303l-14.043-10.408c-.02-.041-.044-.079-.065-.12l-.578-.388.278-.271c.053-.052.109-.102.162-.154.036-.035.072-.069.103-.102a.863.863 0 0 1 .034-.03c.03-.033.062-.061.09-.09.538-.511 1.08-1.019 1.625-1.523.002-.003.002-.003.008-.005 4.167-3.832 8.67-7.324 13.522-9.973.146-.08.295-.163.447-.238a43.372 43.372 0 0 1 6.817-2.949 37.481 37.481 0 0 1 3.906-1.06 30.904 30.904 0 0 1 10.346-.426c6.874.881 13.409 4.11 17.67 9.842.108.146.214.291.32.441z" fill="#F2F2F2"/>
        <path d="M78.829 146.261c-7.952-3.693-16.787-4.604-25.249-2.604a17.035 17.035 0 0 0-5.213 2.082c-1.554 1.013-2.827 2.454-3.686 4.174-.831 1.585-1.51 3.311-2.686 4.652a6.22 6.22 0 0 1-2.166 1.557c-.816.35-1.692.51-2.57.471-2.19-.036-4.237-.914-6.212-1.847-2.192-1.037-4.453-2.15-6.904-2.051-.297.012-.297-.483 0-.495 4.263-.173 7.725 3.092 11.825 3.778 1.914.32 3.929.023 5.393-1.435 1.281-1.276 1.983-3.055 2.812-4.668a11.44 11.44 0 0 1 3.462-4.225 15.827 15.827 0 0 1 5.12-2.289 37.347 37.347 0 0 1 12.456-1.129 39.632 39.632 0 0 1 13.85 3.601c.272.127.038.553-.232.428z" fill="#fff"/>
        <path d="M56.27 142.841a6.994 6.994 0 0 1 1.138-4.411c.855-1.279 2.106-2.19 3.53-2.571.288-.076.412.401.123.477-1.326.352-2.491 1.201-3.285 2.394a6.476 6.476 0 0 0-1.045 4.11c.026.318-.436.316-.462.001zM45.004 149.049c2.27 2.103 5.195 3.211 8.192 3.103.297-.011.297.484 0 .495-3.119.106-6.16-1.053-8.518-3.248-.225-.209.102-.558.326-.35zM69.705 143.16a4.01 4.01 0 0 0 .211 1.824c.21.579.552 1.094.993 1.498.227.206-.1.555-.326.35a4.217 4.217 0 0 1-1.095-1.657 4.493 4.493 0 0 1-.244-2.015.263.263 0 0 1 .07-.172.23.23 0 0 1 .16-.075c.061 0 .12.026.163.072a.26.26 0 0 1 .068.175z" fill="#fff"/>
        <path d="M309.568 190.44c-3.937-10.407-12.806-19.226-23.251-19.978 6.542 9.995 9.577 22.151 8.569 34.317-.404 4.69-1.309 9.862 1.148 13.765 1.529 2.429 4.146 3.871 6.819 4.475 2.674.603 5.438.462 8.167.319l.62.304c1.617-11.096 1.865-22.796-2.072-33.202z" fill="#32E22F"/>
        <path d="M286.273 170.693c7.246 5.097 12.812 12.514 15.905 21.197a20.215 20.215 0 0 1 1.244 5.817 11.572 11.572 0 0 1-1.224 5.597c-.778 1.617-1.748 3.174-2.146 4.965a7.155 7.155 0 0 0-.022 2.797 6.928 6.928 0 0 0 1.045 2.562c1.232 1.943 3.041 3.295 4.853 4.552 2.012 1.395 4.123 2.809 5.392 5.061.154.272.539 0 .386-.272-2.209-3.917-6.654-5.224-9.442-8.522-1.301-1.539-2.177-3.508-1.846-5.623.289-1.849 1.288-3.455 2.089-5.085a12.321 12.321 0 0 0 1.387-5.425 18.754 18.754 0 0 0-1.031-5.846 43.94 43.94 0 0 0-5.968-11.785c-2.892-4.09-6.415-7.619-10.417-10.434-.248-.174-.451.271-.205.444z" fill="#fff"/>
        <path d="M301.336 189.031c1.287-.754 2.283-1.975 2.809-3.445a7.094 7.094 0 0 0 .061-4.576c-.099-.301-.539-.149-.439.151a6.569 6.569 0 0 1-.058 4.261c-.492 1.367-1.424 2.5-2.627 3.195-.261.152-.006.565.254.414zM302.693 202.54c-2.885-.878-5.356-2.891-6.919-5.636-.155-.272-.54-.001-.386.271 1.632 2.854 4.207 4.943 7.212 5.85.286.086.378-.399.093-.485zM293.702 177.165a3.41 3.41 0 0 1-1.536.813 3.264 3.264 0 0 1-1.712-.066c-.285-.09-.377.395-.094.485a3.663 3.663 0 0 0 1.893.07 3.82 3.82 0 0 0 1.703-.888.259.259 0 0 0 .096-.157.279.279 0 0 0-.03-.186.237.237 0 0 0-.146-.106.22.22 0 0 0-.174.035z" fill="#fff"/>
        <path d="M261.949 198.077c.177.061.353.123.531.189a44.449 44.449 0 0 1 6.886 3.132c.173.093.346.19.516.289 5.3 3.054 10.026 7.138 13.937 12.043a50.652 50.652 0 0 1 4.23 6.215c1.741 3.016 3.405 6.434 5.9 8.593.257.229.528.44.811.632l16.486-4.74c.032-.031.066-.058.098-.089l.667-.157-.178-.355c-.033-.068-.07-.136-.103-.204-.023-.045-.047-.09-.066-.132a.322.322 0 0 0-.022-.042c-.018-.042-.04-.079-.058-.117-.345-.675-.696-1.348-1.052-2.02-.001-.004-.001-.004-.006-.007-2.724-5.112-5.87-10.025-9.611-14.269-.113-.128-.226-.26-.347-.385a46.26 46.26 0 0 0-5.496-5.236 39.529 39.529 0 0 0-3.347-2.407 31.863 31.863 0 0 0-9.611-4.131c-6.75-1.65-13.916-.965-19.724 2.898-.148.099-.294.197-.441.3z" fill="#32E22F"/>
        <path d="M262.042 198.29c8.647-.611 17.253 1.717 24.596 6.652a18.13 18.13 0 0 1 4.257 3.841 11.319 11.319 0 0 1 2.165 5.259c.286 1.794.385 3.664 1.072 5.351a6.677 6.677 0 0 0 1.552 2.247 6.125 6.125 0 0 0 2.273 1.371c2.074.756 4.277.667 6.429.499 2.389-.185 4.868-.419 7.145.559.276.118.431-.348.156-.466-3.962-1.701-8.245.126-12.322-.706-1.902-.389-3.707-1.395-4.63-3.297-.806-1.663-.91-3.591-1.185-5.41a12.147 12.147 0 0 0-1.937-5.227 16.905 16.905 0 0 0-4.104-4.002 38.753 38.753 0 0 0-11.379-5.555 39.25 39.25 0 0 0-14.173-1.602c-.295.021-.208.507.085.486z" fill="#fff"/>
        <path d="M284.361 203.204a7.086 7.086 0 0 0 .309-4.565c-.405-1.513-1.298-2.823-2.519-3.695-.248-.175-.514.23-.266.405 1.139.81 1.971 2.03 2.345 3.439a6.557 6.557 0 0 1-.304 4.249c-.123.289.312.455.435.167zM293.026 213.113a11.174 11.174 0 0 1-8.688-.031c-.276-.118-.432.348-.156.466a11.62 11.62 0 0 0 9.041.012c.277-.116.079-.563-.197-.447zM271.607 198.659a3.855 3.855 0 0 1-.771 1.642c-.379.47-.862.832-1.404 1.053-.278.112-.079.559.197.448a3.946 3.946 0 0 0 1.551-1.166c.42-.519.716-1.14.861-1.81a.267.267 0 0 0-.011-.187.248.248 0 0 0-.128-.129.219.219 0 0 0-.177.01.243.243 0 0 0-.118.139z" fill="#fff"/>
        <path d="M233.187 225.876c2.142 0 3.879-1.863 3.879-4.161 0-2.298-1.737-4.161-3.879-4.161s-3.879 1.863-3.879 4.161c0 2.298 1.737 4.161 3.879 4.161z" fill="#FD6584"/>
        <path d="M246.926 155.002c2.142 0 3.879-1.863 3.879-4.161 0-2.298-1.737-4.161-3.879-4.161s-3.878 1.863-3.878 4.161c0 2.298 1.736 4.161 3.878 4.161z" fill="#8C8C8C"/>
        <path d="M174.753 39.579c2.142 0 3.878-1.863 3.878-4.161 0-2.298-1.736-4.161-3.878-4.161-2.142 0-3.879 1.863-3.879 4.16 0 2.299 1.737 4.162 3.879 4.162z" fill="#E6E6E6"/>
        <path d="M93.472 195.04c0 1.059.033 2.118.102 3.169.073 1.255.2 2.502.37 3.74a49.384 49.384 0 0 0 3.258 12.088l.244.575.122.288c.04.096.085.192.126.283.057.126.11.249.167.371.069.152.138.305.21.457.01.018.017.039.03.061.06.131.117.257.182.388a.778.778 0 0 0 .04.083c.07.148.143.301.216.449.082.157.159.318.24.475a43.188 43.188 0 0 0 .967 1.809l.122.214c.065.117.13.231.199.349.15.257.305.514.455.771h.004c.069.118.142.235.215.349v.004c.216.349.439.698.663 1.042h.001l.002.001.001.002v.001c.179.279.365.55.548.82v.004c.122.17.24.345.362.515.097.139.199.283.301.422.02.031.044.057.065.088v.004c.028.039.057.074.085.113.431.593.875 1.173 1.333 1.74l.073.091c.024.031.053.061.077.096.041.048.077.096.118.144.036.048.077.096.118.144a45.274 45.274 0 0 0 8.057 7.624c.394.292.796.575 1.199.85.101.069.203.139.304.205l.09.065c.057.035.109.07.166.109.053.035.106.07.163.105.215.143.435.283.654.422.053.035.11.07.167.105.052.03.109.065.166.1 0 .005 0 .005.004.005h.004v.004h.004c.273.17.549.336.829.497.151.087.305.179.459.261.35.205.703.401 1.057.589.126.065.256.131.382.2.105.053.211.109.317.162.032.017.061.03.089.048l.264.13c.098.048.195.096.289.144.109.053.215.105.325.153.406.196.816.383 1.227.562a40.866 40.866 0 0 0 4.717 1.739c.654.197 1.313.375 1.975.537 1.158.287 2.327.523 3.506.706h.008l.423.065c.012 0 .024.005.041.005 0 .004 0 .004.004 0a74.82 74.82 0 0 1 .5.069c.146.022.296.039.442.057l.476.052.365.039a.076.076 0 0 0 .033.005c.11.009.219.022.329.03h.016l.285.027c1.133.095 2.271.139 3.425.139 1.247 0 2.487-.052 3.71-.166h.012l.784-.078c.069-.009.134-.013.203-.022.012 0 .029-.004.041-.004.02-.005.04-.005.065-.009a.112.112 0 0 0 .032-.004c.09-.009.179-.022.273-.031l.304-.039c.102-.013.203-.031.305-.044.024-.004.045-.004.069-.008.073-.009.146-.022.22-.035l.105-.013c.073-.013.142-.022.216-.035h.004a40.64 40.64 0 0 0 6.582-1.591c.114-.039.227-.074.341-.114.004 0 .008-.004.012-.004.033-.013.07-.022.102-.035.305-.104.605-.213.906-.327.415-.148.825-.309 1.235-.475.11-.048.22-.091.329-.139.224-.092.443-.188.663-.284a37.124 37.124 0 0 0 2.145-1.011c.008-.004.02-.004.029-.013l.227-.118h.004a42.884 42.884 0 0 0 5.4-3.308 44.954 44.954 0 0 0 1.633-1.23 45.53 45.53 0 0 0 7.042-6.961v-.004c.126-.149.244-.301.366-.454l.052-.061c.078-.1.151-.196.228-.292v-.004c.102-.127.203-.257.301-.388l.065-.083v-.004c.081-.105.158-.21.239-.319.041-.052.078-.104.118-.156v-.005c.24-.322.472-.645.703-.976.061-.087.122-.179.187-.27.293-.423.577-.855.853-1.286v-.005c.106-.161.208-.327.313-.488l.305-.497c.101-.174.207-.344.309-.519l.012-.026c.101-.165.203-.34.301-.51.077-.139.154-.274.231-.41.049-.091.102-.183.151-.279.019-.029.036-.06.052-.091l.342-.641c.134-.248.264-.501.394-.754a11.353 11.353 0 0 1 .207-.418c.061-.122.122-.249.179-.375.061-.122.122-.249.183-.375.056-.122.117-.249.174-.375.045-.096.086-.192.13-.288.003-.008.008-.015.013-.022.02-.047.04-.091.056-.135.005-.006.009-.014.013-.021.044-.096.085-.197.13-.293.057-.126.109-.257.166-.383.037-.087.077-.179.114-.27.053-.127.11-.253.158-.384.057-.131.11-.262.163-.397.015-.032.029-.066.041-.1.028-.061.048-.122.073-.183.065-.161.13-.327.191-.488.073-.183.142-.371.207-.554.065-.17.126-.344.187-.519l.024-.061a49.945 49.945 0 0 0 2.146-8.251v-.005c.271-1.607.465-3.227.581-4.856.004-.091.012-.178.016-.266a50.254 50.254 0 0 0 .085-4.79c-.283-10.211-3.677-20.04-9.662-27.985-.13-.175-.26-.349-.394-.523-.134-.175-.272-.345-.406-.515-4.455-5.596-10.072-9.991-16.4-12.831-6.328-2.839-13.189-4.044-20.031-3.517-6.842.528-13.472 2.772-19.357 6.553-5.884 3.781-10.859 8.992-14.521 15.214a47.365 47.365 0 0 0-1.159 2.079c-3.68 7.019-5.61 14.94-5.599 22.994z" fill="#B0C8AD"/>
        <path d="M135.509 164.323a96.72 96.72 0 0 0 22.001 3.407c1.123.065 2.249.057 3.371-.025 2.466-.222 4.578-1.054 6.931-1.508 1.131-.218 2.391-.377 3.529-.613-.263-.35-.531-.696-.803-1.037-2.455.222-4.949.951-7.433 1.289-4.224.576-8.956-.067-12.157-1.652-1.554-.77-2.744-1.73-4.291-2.503a1.897 1.897 0 0 0-.674-.221 2.221 2.221 0 0 0-1.271.353c-2.597 1.407-6.367 2.55-9.867 1.921-.261.219.235.468.664.589zM120.022 169.273c-.032-.007-.064-.011-.096-.017a2.7 2.7 0 0 0 .379-.306l-.283.323zM99.072 172.048c1.462.125 2.931.218 4.408.28 1.123.065 2.249.056 3.371-.025 2.466-.224 4.578-1.054 6.931-1.508 2.156-.416 4.775-.616 6.144-1.539-3.538-.657-7.203.68-10.851 1.178a24.182 24.182 0 0 1-8.843-.469c-.404.682-.79 1.376-1.16 2.083z" fill="#fff"/>
        <path d="M116.754 236.542c.35.205.703.401 1.057.589.126.065.256.131.382.2.105.053.211.109.317.162.032.017.061.03.089.048l.264.13c.098.048.195.096.289.144.109.053.215.105.325.153.406.196.816.383 1.227.562a40.866 40.866 0 0 0 4.717 1.739c.654.197 1.312.375 1.975.537 1.158.287 2.327.523 3.506.706h.008l.423.065c.012 0 .024.005.041.005 0 .004 0 .004.004 0a86.917 86.917 0 0 1 .499.069c.147.022.297.039.443.057l.476.052.365.039a.076.076 0 0 0 .033.005c.11.009.219.022.329.03h.016l.285.027c1.133.095 2.271.139 3.425.139 1.247 0 2.487-.052 3.71-.166h.012l.784-.078c.069-.009.134-.013.203-.022.012 0 .029-.004.041-.004.02-.005.04-.005.065-.009a.112.112 0 0 0 .032-.004c.09-.009.179-.022.272-.031l.305-.039c.102-.013.203-.031.305-.044.024-.004.045-.004.069-.008.073-.009.146-.022.219-.035l.106-.013c.073-.013.142-.022.215-.035h.004a40.625 40.625 0 0 0 6.583-1.591c.114-.039.227-.074.341-.114a18.1 18.1 0 0 0-3.157-7.191c-1.552-2.105-3.534-3.8-5.794-4.953a4.225 4.225 0 0 0 1.109-2.118 4.337 4.337 0 0 0 .025-1.586 4.24 4.24 0 0 0-.545-1.475c-.527-.868-1.354-1.476-2.3-1.691l-6.021-1.351a3.54 3.54 0 0 0-2.796.601c-.822.588-1.394 1.499-1.592 2.537a4.555 4.555 0 0 0-.082.968c-5.798 4.141-9.971 8.435-12.608 12.994z" fill="#32E22F"/>
        <path d="M134.534 216.89c6.929 0 12.546-6.025 12.546-13.459 0-7.433-5.617-13.458-12.546-13.458-6.928 0-12.545 6.025-12.545 13.458 0 7.434 5.617 13.459 12.545 13.459z" fill="#FFB8B8"/>
        <path d="M126.715 215.035c-1.338-.98-2.704-2.864-3.616-4.276a16.803 16.803 0 0 1-2.441-6.187 17.296 17.296 0 0 1 .115-6.717 5.078 5.078 0 0 1 1.08-2.373c.59-.627 1.555-.925 2.277-.481a4.704 4.704 0 0 1 .167-3.505 7.68 7.68 0 0 1 2.145-2.741 11.645 11.645 0 0 1 5.951-2.602 11.349 11.349 0 0 1 6.354 1.04c.783.389-.504-2.62.316-2.329a3.137 3.137 0 0 0 2.524-.048c.772-.417 3.329 2.059 3.033 1.188a3.87 3.87 0 0 1 1.478 1.278c.385.552.633 1.201.721 1.884a4.368 4.368 0 0 1-.217 2.023 4.087 4.087 0 0 1-1.1 1.66c-.647.587-1.456.924-2.165 1.422-1.242.938-2.121 2.33-2.471 3.916a7.106 7.106 0 0 0 .57 4.689 7.958 7.958 0 0 0-2.423-1.13 2.607 2.607 0 0 0-1.313-.002 2.72 2.72 0 0 0-1.168.642 3.423 3.423 0 0 0-.623 1.184 3.563 3.563 0 0 0-.135 1.351c.028.914.23 1.814.253 2.727.067 2.681 1.405 7.777-.532 9.201-1.529 1.125-6.954-.475-8.78-1.814z" fill="#2F2E41"/>
        <path d="M143.16 136.066c-.264 0-.525-.057-.769-.167a1.974 1.974 0 0 1-.893-.777 2.2 2.2 0 0 1-.328-1.182v-2.13c0-.447-.166-.876-.46-1.192a1.524 1.524 0 0 0-1.111-.494 1.912 1.912 0 0 1-1.397-.622 2.206 2.206 0 0 1-.58-1.499V98.816a2.205 2.205 0 0 1 .58-1.499c.37-.398.873-.621 1.397-.622h90.132c.524 0 1.027.224 1.398.622.37.398.579.937.579 1.5v29.186c0 .562-.209 1.101-.579 1.499a1.916 1.916 0 0 1-1.398.622h-79.579a1.475 1.475 0 0 0-.602.127c-.191.085-.364.21-.509.367l-4.495 4.822a1.964 1.964 0 0 1-.634.462 1.835 1.835 0 0 1-.752.164z" fill="#fff"/>
        <path d="M143.16 136.502a2.395 2.395 0 0 1-2.001-1.137 2.656 2.656 0 0 1-.395-1.425v-2.13a1.3 1.3 0 0 0-.341-.884 1.13 1.13 0 0 0-.824-.366 2.307 2.307 0 0 1-1.684-.75 2.656 2.656 0 0 1-.699-1.808V98.816c0-.678.252-1.328.698-1.807a2.308 2.308 0 0 1 1.685-.75h90.132c.632 0 1.238.27 1.685.75.447.48.698 1.13.699 1.807v29.186a2.661 2.661 0 0 1-.699 1.808 2.31 2.31 0 0 1-1.685.75h-79.579a1.092 1.092 0 0 0-.446.094c-.142.063-.27.156-.378.272l-4.495 4.822a2.361 2.361 0 0 1-.766.557 2.227 2.227 0 0 1-.907.197zm-3.561-39.371a1.52 1.52 0 0 0-1.11.494c-.295.316-.46.745-.461 1.192v29.185c.001.447.166.876.461 1.192.294.316.694.494 1.11.494a1.918 1.918 0 0 1 1.398.622c.371.398.579.937.58 1.5v2.13c0 .333.092.659.264.936.173.277.418.493.706.621.287.127.602.161.907.096.305-.065.585-.226.804-.462l4.495-4.821c.184-.198.401-.355.641-.461.24-.107.498-.162.758-.161h79.579c.417 0 .816-.178 1.11-.494a1.75 1.75 0 0 0 .461-1.192V98.816c0-.446-.166-.875-.461-1.19a1.518 1.518 0 0 0-1.11-.495h-90.132z" fill="#3F3D56"/>
        <path d="M221.986 109.908h-73.088c-.279 0-.547-.119-.744-.33a1.17 1.17 0 0 1-.309-.799c0-.299.111-.587.309-.799.197-.211.465-.33.744-.33h73.088c.279 0 .547.119.744.33.197.212.308.5.308.799 0 .3-.111.587-.308.799-.197.211-.465.33-.744.33z" fill="#32E22F"/>
        <path d="M221.851 114.706h-72.953c-.279 0-.547-.119-.744-.33a1.17 1.17 0 0 1-.309-.799c0-.3.111-.587.309-.799.197-.211.465-.33.744-.33h72.953c.28 0 .547.119.745.33.197.212.308.499.308.799 0 .3-.111.587-.308.799-.198.211-.465.33-.745.33zM221.779 119.504h-72.881c-.279 0-.547-.119-.744-.331a1.168 1.168 0 0 1-.309-.798c0-.3.111-.587.309-.799.197-.212.465-.331.744-.331h72.881c.279 0 .547.119.744.331.198.212.308.499.308.799 0 .299-.11.587-.308.798a1.016 1.016 0 0 1-.744.331z" fill="#E6E6E6"/>
        <path d="M329.777 92.397c0 1.06-.032 2.119-.101 3.17a49.385 49.385 0 0 1-3.629 15.828l-.244.574-.122.288c-.04.096-.085.192-.126.283-.056.127-.109.249-.166.371-.069.152-.138.305-.211.458-.009.017-.017.039-.029.061-.061.13-.118.257-.183.388a20.494 20.494 0 0 1-.256.531c-.081.157-.158.319-.239.476a47.18 47.18 0 0 1-.606 1.155c-.061.113-.122.226-.187.34-.057.104-.113.209-.174.314-.041.069-.082.143-.122.213-.065.118-.13.231-.199.349l-.456.771h-.004a9.292 9.292 0 0 1-.215.349v.004c-.215.349-.439.698-.662 1.042l-.002.001-.001.001-.001.001v.002c-.179.279-.366.549-.549.819v.005c-.122.17-.24.344-.361.514-.098.139-.2.283-.301.423-.02.03-.045.056-.065.087v.004c-.029.039-.057.074-.085.114a43.687 43.687 0 0 1-1.333 1.739l-.073.091c-.025.031-.053.061-.078.096l-.117.144c-.037.048-.078.096-.118.144a45.308 45.308 0 0 1-8.057 7.624 40.19 40.19 0 0 1-1.504 1.055c-.028.022-.061.043-.089.065-.057.035-.11.07-.167.109-.053.035-.105.07-.162.105-.216.144-.435.283-.654.423-.053.035-.11.069-.167.104l-.167.101c0 .004 0 .004-.004.004h-.004v.004h-.004c-.272.17-.548.336-.829.497-.15.087-.304.179-.459.262-.349.205-.703.401-1.056.588-.126.066-.256.131-.382.201-.106.052-.212.109-.317.161-.033.017-.061.031-.09.048l-.264.131c-.097.048-.195.096-.288.144-.11.052-.215.104-.325.152a41.018 41.018 0 0 1-5.945 2.302c-.654.196-1.312.375-1.974.536a39.785 39.785 0 0 1-3.507.706h-.008l-.423.065c-.012 0-.024.005-.04.005 0 .004 0 .004-.004 0l-.467.065a16.748 16.748 0 0 1-.476.061l-.475.053-.366.039c-.01.004-.021.005-.032.004-.11.009-.22.022-.33.031h-.016l-.284.026a40.531 40.531 0 0 1-3.426.139 40.34 40.34 0 0 1-3.709-.165h-.012l-.785-.079c-.069-.009-.134-.013-.203-.022-.012 0-.028-.004-.04-.004-.021-.004-.041-.004-.065-.009a.093.093 0 0 1-.033-.004c-.089-.009-.179-.022-.272-.031l-.305-.039c-.101-.013-.203-.03-.305-.043-.024-.005-.044-.005-.069-.009a4.152 4.152 0 0 1-.219-.035l-.106-.013c-.073-.013-.142-.022-.215-.035h-.004a40.381 40.381 0 0 1-6.582-1.591c-.114-.039-.228-.074-.342-.113-.004 0-.008-.005-.012-.005-.032-.013-.069-.021-.102-.035a32.586 32.586 0 0 1-.906-.326 34.47 34.47 0 0 1-1.235-.476c-.109-.048-.219-.091-.329-.139-.223-.092-.443-.188-.662-.283a39.9 39.9 0 0 1-1.118-.506 46.557 46.557 0 0 1-1.028-.506c-.008-.004-.02-.004-.028-.013l-.228-.117h-.004a43.08 43.08 0 0 1-5.4-3.309 45.815 45.815 0 0 1-1.633-1.229 45.523 45.523 0 0 1-7.041-6.962v-.004c-.126-.148-.244-.301-.366-.453l-.053-.061c-.077-.101-.15-.197-.227-.292v-.005a11.46 11.46 0 0 1-.301-.388l-.065-.083v-.004a21.957 21.957 0 0 1-.24-.318c-.04-.052-.077-.105-.118-.157v-.004a46.64 46.64 0 0 1-.703-.977c-.061-.087-.121-.179-.187-.27a46.912 46.912 0 0 1-.853-1.286v-.004c-.105-.162-.207-.327-.313-.489l-.304-.497c-.102-.174-.208-.344-.309-.518l-.012-.026c-.102-.166-.204-.34-.301-.51-.077-.14-.154-.275-.232-.41-.048-.092-.101-.183-.15-.279a1.045 1.045 0 0 1-.053-.092l-.341-.641c-.134-.248-.264-.501-.394-.754a11.345 11.345 0 0 0-.207-.418 10.793 10.793 0 0 1-.179-.375 26.466 26.466 0 0 1-.183-.375c-.057-.122-.118-.248-.175-.375-.044-.096-.085-.192-.13-.287a.078.078 0 0 0-.012-.022c-.02-.048-.041-.092-.057-.135a.094.094 0 0 1-.012-.022c-.045-.096-.085-.196-.13-.292-.057-.127-.11-.257-.167-.384-.036-.087-.077-.179-.113-.27-.053-.126-.11-.253-.159-.384a9.359 9.359 0 0 1-.162-.396.89.89 0 0 1-.041-.101c-.029-.061-.049-.122-.073-.183-.065-.161-.13-.327-.191-.488-.073-.183-.142-.37-.207-.554-.065-.17-.126-.344-.187-.518l-.025-.061a50.027 50.027 0 0 1-2.145-8.252v-.004a51.017 51.017 0 0 1-.581-4.856c-.004-.092-.012-.18-.016-.266a50.28 50.28 0 0 1-.106-3.322c0-.492.008-.98.02-1.469.284-10.21 3.678-20.04 9.663-27.985.13-.174.26-.349.394-.523.134-.175.272-.345.406-.514 4.454-5.597 10.072-9.992 16.4-12.831 6.328-2.84 13.189-4.044 20.03-3.517 6.842.527 13.472 2.771 19.357 6.552 5.885 3.78 10.859 8.992 14.522 15.214a51.317 51.317 0 0 1 1.158 2.08c3.681 7.019 5.61 14.94 5.599 22.993z" fill="#B0C8AD"/>
        <path d="M287.74 61.68a96.74 96.74 0 0 1-22.001 3.407 25.657 25.657 0 0 1-3.371-.025c-2.466-.222-4.578-1.053-6.93-1.508-1.131-.218-2.391-.377-3.53-.612.264-.35.531-.696.804-1.038 2.455.223 4.948.951 7.433 1.29 4.223.576 8.955-.067 12.157-1.653 1.553-.77 2.743-1.73 4.291-2.503a1.9 1.9 0 0 1 .673-.22 2.22 2.22 0 0 1 1.271.353c2.597 1.406 6.367 2.55 9.867 1.92.261.22-.235.469-.664.59zM310.533 66.399l.096-.017a2.64 2.64 0 0 1-.378-.306l.282.323zM324.177 69.405c-1.461.125-2.931.219-4.408.28a25.886 25.886 0 0 1-3.37-.025c-2.466-.223-4.579-1.054-6.931-1.508-2.156-.416-4.776-.616-6.145-1.539 3.538-.657 7.204.68 10.852 1.178 2.951.39 5.942.231 8.843-.468.404.681.79 1.375 1.159 2.082z" fill="#fff"/>
        <path d="M281.066 112.946c7.261 0 13.148-6.456 13.148-14.42 0-7.963-5.887-14.419-13.148-14.419-7.262 0-13.148 6.456-13.148 14.42 0 7.963 5.886 14.419 13.148 14.419z" fill="#FFB6B6"/>
        <path d="M306.495 133.9c-.349.205-.703.401-1.056.588-.126.066-.256.131-.382.201-.106.052-.211.109-.317.161-.033.018-.061.031-.089.048l-.265.131c-.097.048-.195.096-.288.144-.11.052-.215.104-.325.152a41.217 41.217 0 0 1-5.729 2.236l-.215.066c-.655.196-1.313.375-1.975.536a39.785 39.785 0 0 1-3.507.706h-.008l-.422.066c-.013 0-.025.004-.041.004 0 .004 0 .004-.004 0l-.467.065a16.748 16.748 0 0 1-.476.061l-.475.053-.366.039c-.01.004-.021.005-.032.004-.11.009-.22.022-.329.031h-.017l-.284.026a40.507 40.507 0 0 1-3.425.139c-1.248 0-2.487-.052-3.71-.165h-.012l-.784-.079c-.07-.008-.135-.013-.204-.022-.012 0-.028-.004-.04-.004-.021-.004-.041-.004-.065-.009a.093.093 0 0 1-.033-.004c-.089-.009-.179-.022-.272-.031l-.305-.039c-.101-.013-.203-.03-.304-.043-.025-.005-.045-.005-.07-.009a4.152 4.152 0 0 1-.219-.035l-.106-.013c-.073-.013-.142-.022-.215-.035h-.004a40.381 40.381 0 0 1-6.582-1.591c-.114-.039-.228-.074-.342-.113a18.108 18.108 0 0 1 3.157-7.191c1.552-2.106 3.535-3.801 5.795-4.954a4.226 4.226 0 0 1-1.11-2.118 4.337 4.337 0 0 1-.024-1.586 4.225 4.225 0 0 1 .544-1.474c.528-.869 1.355-1.477 2.3-1.691l6.022-1.352a3.54 3.54 0 0 1 2.796.601c.821.588 1.394 1.5 1.592 2.538.061.318.089.643.081.967 5.798 4.142 9.971 8.435 12.608 12.995z" fill="#32E22F"/>
        <path d="M316.248 92.273c-2.235-2.796-3.297-6.506-5.084-9.68-1.787-3.175-4.896-6.017-8.18-5.278-2.264.509-4.014 2.653-4.9 5.042-.886 2.39-1.052 5.025-1.207 7.607.055-5.306-3.203-10.45-7.691-12.142-4.488-1.693-9.859.195-12.679 4.458-1.231-1.224-2.838-1.92-4.515-1.959-1.678-.037-3.31.587-4.588 1.754-2.522 2.419-3.08 7.022-1.225 10.107 1.855 3.085 5.873 4.235 8.821 2.524l1.042 1.028c-.587 2.202.551 4.802 2.464 5.631 1.55.672 3.74.56 4.32 2.306.406 1.22-.352 2.522-1.159 3.46-.806.937-1.763 1.905-1.86 3.203-.146 1.957 1.739 3.328 3.453 3.741 4.133.996 8.719-1.057 11.101-4.97a4.2 4.2 0 0 1 .149-.227 17.631 17.631 0 0 0 2.863-6.191c.552-2.251.67-4.599.348-6.9-.134-.905.001-1.578.582-1.792 2.512-.925 9.55 1.017 11.68 2.773 2.13 1.756 3.836 4.08 5.888 5.95 2.051 1.869 4.666 3.311 7.271 2.802 2.086-.408 3.861-2.033 5.055-3.993 1.194-1.96 1.881-4.245 2.497-6.516-4.614 2.86-10.928 1.663-14.446-2.738z" fill="#2F2E41"/>
        <path d="M53.653 62.96c0 1.06.033 2.119.102 3.17.073 1.255.199 2.501.37 3.74a49.368 49.368 0 0 0 3.258 12.087l.244.575.122.288c.04.096.085.192.126.283.057.127.11.249.167.37.069.153.138.306.21.459.009.017.017.039.03.06.06.131.117.258.182.389a.794.794 0 0 0 .04.082c.07.149.143.301.216.45.081.156.159.318.24.475a43.83 43.83 0 0 0 .792 1.495c.057.104.114.209.175.314l.122.213c.065.118.13.231.199.349.15.257.305.514.455.771h.004c.07.118.142.236.215.35v.004a54.74 54.74 0 0 0 .666 1.043v.003c.18.279.366.549.55.82v.004c.121.17.239.344.36.514.098.14.2.283.302.423.02.03.044.056.065.087v.004c.028.04.056.074.085.114.43.592.875 1.172 1.333 1.739l.073.091c.024.03.053.061.077.096.04.048.077.096.118.144.036.048.077.096.118.144a45.275 45.275 0 0 0 8.057 7.624 38.676 38.676 0 0 0 1.503 1.055l.09.065c.056.035.11.07.166.109.053.035.106.07.163.105.215.144.434.283.654.423.053.035.11.069.166.104l.167.101c0 .004 0 .004.004.004h.004v.004h.004c.272.17.549.336.83.497.15.087.304.179.458.262.35.205.703.401 1.057.588.126.066.256.131.382.201.105.052.21.109.317.161.032.017.06.031.089.048l.264.131c.098.048.195.096.289.144.11.052.215.104.325.152a41.163 41.163 0 0 0 5.73 2.236l.214.066c.654.196 1.313.375 1.975.536 1.158.288 2.327.523 3.506.706h.008l.423.065c.012 0 .024.005.04.005 0 .004 0 .004.005 0l.467.065a16.741 16.741 0 0 0 .475.061l.476.053.365.039c.01.004.022.005.033.004.11.009.22.022.329.031h.016l.285.026c1.133.096 2.271.139 3.425.139 1.247 0 2.487-.052 3.71-.165h.012l.784-.079c.069-.009.134-.013.203-.022.012 0 .029-.004.041-.004.02-.004.04-.004.065-.009a.085.085 0 0 0 .032-.004c.09-.009.179-.022.273-.031l.304-.039c.102-.013.203-.03.305-.043.024-.005.045-.005.069-.009.073-.009.146-.022.219-.035l.106-.013c.073-.013.142-.022.215-.035h.005a40.431 40.431 0 0 0 6.582-1.591c.114-.039.227-.074.341-.113.004 0 .008-.005.012-.005.033-.013.069-.021.102-.034.305-.105.605-.214.906-.327.414-.149.825-.31 1.235-.476.11-.048.22-.091.329-.139a41.193 41.193 0 0 0 1.78-.789c.345-.166.687-.331 1.028-.506.008-.004.02-.004.028-.013.078-.039.155-.078.228-.117h.004a43.009 43.009 0 0 0 5.4-3.309 44.926 44.926 0 0 0 1.633-1.229 45.497 45.497 0 0 0 7.042-6.962v-.004c.126-.148.244-.3.366-.453.02-.022.036-.044.052-.061.078-.1.151-.197.228-.293v-.004c.101-.126.203-.257.301-.388l.065-.083v-.004c.081-.105.158-.21.239-.318.041-.052.077-.105.118-.157v-.005c.24-.322.471-.645.703-.976.061-.087.122-.179.187-.27.292-.423.577-.855.853-1.286v-.004c.106-.162.207-.327.313-.489l.305-.497c.101-.174.207-.344.309-.518l.012-.026c.101-.166.203-.34.3-.51.078-.14.155-.275.232-.41.049-.092.102-.183.15-.28.019-.029.037-.06.053-.09l.342-.641c.134-.249.264-.502.394-.755a9.079 9.079 0 0 1 .207-.418c.061-.122.122-.249.179-.375.061-.122.122-.248.183-.375.056-.122.117-.248.174-.375.045-.096.086-.192.13-.287a.087.087 0 0 1 .012-.022c.021-.048.041-.092.057-.135a.141.141 0 0 0 .013-.022c.044-.096.085-.196.13-.292.056-.127.109-.257.166-.384.037-.087.077-.178.114-.27.053-.126.11-.253.158-.384.057-.13.11-.261.163-.396.015-.033.029-.066.041-.1.028-.062.048-.123.073-.184.065-.161.13-.327.191-.488.073-.183.142-.37.207-.553.065-.17.126-.345.187-.52l.024-.06a49.836 49.836 0 0 0 2.145-8.252v-.004c.272-1.607.465-3.228.582-4.856.004-.092.012-.179.016-.266.073-1.103.105-2.21.105-3.322 0-.492-.008-.98-.02-1.469-.284-10.21-3.677-20.04-9.662-27.985-.13-.174-.26-.349-.394-.523-.134-.174-.272-.344-.407-.514-4.454-5.597-10.071-9.992-16.399-12.831-6.328-2.84-13.189-4.045-20.031-3.517-6.842.527-13.472 2.771-19.357 6.552-5.884 3.78-10.859 8.992-14.522 15.214a50.364 50.364 0 0 0-1.158 2.08c-3.68 7.019-5.61 14.94-5.599 22.993z" fill="#B0C8AD"/>
        <path d="M95.69 32.243a96.748 96.748 0 0 0 22.001 3.407c1.123.066 2.249.058 3.371-.024 2.466-.223 4.578-1.054 6.931-1.509 1.131-.218 2.39-.377 3.529-.612-.263-.35-.531-.696-.803-1.038-2.455.223-4.949.951-7.433 1.29-4.224.576-8.956-.067-12.157-1.653-1.554-.77-2.744-1.73-4.292-2.503a1.894 1.894 0 0 0-.673-.22 2.224 2.224 0 0 0-1.271.353c-2.597 1.406-6.367 2.55-9.867 1.92-.26.22.235.469.664.59zM80.203 37.193l-.096-.017c.135-.09.261-.192.379-.306l-.283.323zM59.253 39.968c1.462.125 2.931.219 4.408.28 1.123.065 2.249.057 3.371-.025 2.466-.223 4.578-1.054 6.93-1.508 2.157-.416 4.776-.616 6.145-1.539-3.538-.657-7.203.68-10.851 1.178-2.951.39-5.943.231-8.843-.468-.404.681-.79 1.375-1.16 2.082z" fill="#fff"/>
        <path d="M76.935 104.463c.35.205.703.401 1.057.588.126.066.256.131.382.201.105.052.211.109.317.161.032.018.06.031.089.048l.264.131c.098.048.195.096.289.144.11.052.215.104.325.152a41.171 41.171 0 0 0 5.944 2.302c.654.196 1.313.375 1.975.536 1.158.288 2.327.523 3.506.706h.008l.423.066c.012 0 .024.004.04.004 0 .004 0 .004.005 0l.467.065a16.741 16.741 0 0 0 .475.061l.476.053.365.039c.01.004.022.005.033.004.11.009.22.022.329.031h.016l.285.026c1.133.096 2.271.139 3.425.139 1.247 0 2.487-.052 3.71-.165h.012l.784-.079c.069-.008.134-.013.203-.022.012 0 .029-.004.041-.004.02-.004.04-.004.065-.009a.085.085 0 0 0 .032-.004c.09-.009.179-.022.273-.03l.304-.04c.102-.013.203-.03.305-.043.024-.005.045-.005.069-.009.073-.009.146-.022.219-.035l.106-.013c.073-.013.142-.022.215-.035h.005a40.431 40.431 0 0 0 6.582-1.591c.114-.039.227-.074.341-.113a18.094 18.094 0 0 0-3.157-7.191c-1.552-2.106-3.534-3.8-5.794-4.954a4.226 4.226 0 0 0 1.109-2.118c.106-.522.114-1.06.025-1.586a4.229 4.229 0 0 0-.545-1.474c-.527-.869-1.354-1.477-2.3-1.692l-6.021-1.35a3.542 3.542 0 0 0-2.796.6c-.822.588-1.394 1.5-1.592 2.538a4.562 4.562 0 0 0-.082.968c-5.798 4.14-9.97 8.434-12.608 12.994z" fill="#32E22F"/>
        <path d="M100.757 83.001c8.095 0 14.657-7.04 14.657-15.724 0-8.684-6.562-15.724-14.657-15.724-8.095 0-14.657 7.04-14.657 15.724 0 8.684 6.562 15.724 14.657 15.724z" fill="#9E616A"/>
        <path d="M98.674 82.161c-3.67 1.063-7.715-.35-10.578-3.032-2.864-2.68-4.655-6.48-5.687-10.405-.756-2.874-1.115-6.064.078-8.763 1.193-2.698 4.404-4.518 6.88-3.155-1.528-1.91-.764-5.069 1.02-6.703 1.785-1.634 4.235-2.102 6.57-2.358 3.386-.372 6.885-.413 10.108.764 3.223 1.177 6.151 3.75 7.16 7.24 1.03.514 2.19.648 3.299.38a5.096 5.096 0 0 0 2.827-1.864 5.31 5.31 0 0 1-.427 3.172 4.82 4.82 0 0 1-2.137 2.24l4.938-1.717c.85 1.928-.639 4.315-2.542 4.933-1.903.617-3.957-.057-5.763-.95-1.806-.892-3.556-2.02-5.517-2.368-1.962-.348-4.266.328-5.173 2.226-.475.994-.5 2.158-.776 3.236-.276 1.077-.975 2.194-2.013 2.282-.656.055-1.298-.32-1.952-.243-.401.085-.77.294-1.064.6a2.305 2.305 0 0 0-.583 1.127 7.097 7.097 0 0 0-.006 2.607l1.254 10.286.084.465z" fill="#2F2E41"/>
    </g>
    <defs>
        <filter id="o5geld6bsa" x="0" y="0" width="358" height="266" filterUnits="userSpaceOnUse" color-interpolation-filters="sRGB">
            <feFlood flood-opacity="0" result="BackgroundImageFix"/>
            <feColorMatrix in="SourceAlpha" values="0 0 0 0 0 0 0 0 0 0 0 0 0 0 0 0 0 0 127 0" result="hardAlpha"/>
            <feOffset dy="4"/>
            <feGaussianBlur stdDeviation="10"/>
            <feComposite in2="hardAlpha" operator="out"/>
            <feColorMatrix values="0 0 0 0 1 0 0 0 0 1 0 0 0 0 1 0 0 0 0.25 0"/>
            <feBlend in2="BackgroundImageFix" result="effect1_dropShadow_25_1157"/>
            <feBlend in="SourceGraphic" in2="effect1_dropShadow_25_1157" result="shape"/>
            <feColorMatrix in="SourceAlpha" values="0 0 0 0 0 0 0 0 0 0 0 0 0 0 0 0 0 0 127 0" result="hardAlpha"/>
            <feOffset dx="-2" dy="-2"/>
            <feGaussianBlur stdDeviation="2"/>
            <feComposite in2="hardAlpha" operator="arithmetic" k2="-1" k3="1"/>
            <feColorMatrix values="0 0 0 0 0 0 0 0 0 0 0 0 0 0 0 0 0 0 0.25 0"/>
            <feBlend in2="shape" result="effect2_innerShadow_25_1157"/>
        </filter>
    </defs>
</svg>
